<svg width="168" height="28" viewBox="0 0 168 28" fill="none" xmlns="http://www.w3.org/2000/svg">
<g clip-path="url(#clip0_11_14)">
<path d="M40.2021 20.9503C36.2359 20.9503 33.3239 18.0646 33.3239 14.1908C33.3239 10.3564 36.2623 7.43124 40.2284 7.43124C44.1945 7.43124 47.1329 10.396 47.1329 14.1908C47.1197 18.0251 44.1682 20.9503 40.2021 20.9503ZM40.2284 18.5917C42.7319 18.5917 44.5239 16.7338 44.5239 14.1908C44.5239 11.7004 42.7319 9.78984 40.2284 9.78984C37.6985 9.78984 35.9065 11.6873 35.9065 14.1908C35.9065 16.7206 37.6985 18.5917 40.2284 18.5917ZM49.7814 24.9954V10.9098H52.1795V12.1616H52.3112C52.5748 11.7531 53.4708 10.6727 55.2628 10.6727C58.0166 10.6727 59.9009 12.7282 59.9009 15.772C59.9009 18.8157 58.0298 20.9503 55.3418 20.9503C53.6025 20.9503 52.667 19.9752 52.3508 19.435H52.219V24.9823H49.7814V24.9954ZM54.7884 18.763C56.3564 18.763 57.4237 17.5507 57.4237 15.8247C57.4237 14.0327 56.3564 12.8863 54.7752 12.8863C53.1677 12.8863 52.1531 14.1776 52.1531 15.8247C52.1531 17.643 53.2731 18.763 54.7884 18.763ZM66.8449 20.9503C63.9461 20.9503 61.8905 18.7893 61.8905 15.8642C61.8905 12.7677 63.9724 10.6727 66.8449 10.6727C70.0072 10.6727 71.7202 13.0049 71.7202 15.7588V16.523H64.2359C64.315 18.0119 65.3428 19.0133 66.9108 19.0133C68.1098 19.0133 69.019 18.4599 69.3616 17.6561H71.6279C71.1536 19.6458 69.3879 20.9503 66.8449 20.9503ZM64.2886 14.8101H69.4143C69.2957 13.4924 68.2679 12.6096 66.8581 12.6096C65.4877 12.6096 64.4336 13.5847 64.2886 14.8101ZM74.3423 20.7131V10.9098H76.6614V12.0957H76.7931C77.1884 11.371 78.1635 10.6595 79.5602 10.6595C81.7607 10.6595 83.1178 12.2011 83.1178 14.2962V20.6999H80.6934V14.9287C80.6934 13.7428 79.9291 12.939 78.8091 12.939C77.6364 12.939 76.7931 13.8746 76.7931 15.1V20.7131H74.3423ZM85.5291 20.7131V18.4994L92.3414 9.94795V9.81618H85.7795V7.66843H95.451V9.86889L88.6388 18.4204V18.5653H95.4774V20.7131H85.5291ZM102.052 20.9503C99.1536 20.9503 97.0981 18.7893 97.0981 15.8642C97.0981 12.7677 99.1799 10.6727 102.052 10.6727C105.215 10.6727 106.928 13.0049 106.928 15.7588V16.523H99.4435C99.5225 18.0119 100.55 19.0133 102.118 19.0133C103.317 19.0133 104.227 18.4599 104.569 17.6561H106.835C106.348 19.6458 104.595 20.9503 102.052 20.9503ZM99.4962 14.8101H104.622C104.503 13.4924 103.475 12.6096 102.066 12.6096C100.695 12.6096 99.6411 13.5847 99.4962 14.8101ZM109.55 24.9954V10.9098H111.948V12.1616H112.08C112.343 11.7531 113.239 10.6727 115.031 10.6727C117.785 10.6727 119.669 12.7282 119.669 15.772C119.669 18.8157 117.798 20.9503 115.11 20.9503C113.371 20.9503 112.435 19.9752 112.119 19.435H111.987V24.9823H109.55V24.9954ZM114.557 18.763C116.125 18.763 117.192 17.5507 117.192 15.8247C117.192 14.0327 116.125 12.8863 114.544 12.8863C112.936 12.8863 111.922 14.1776 111.922 15.8247C111.922 17.643 113.042 18.763 114.557 18.763ZM122.278 24.9954V10.9098H124.676V12.1616H124.808C125.072 11.7531 125.968 10.6727 127.76 10.6727C130.514 10.6727 132.398 12.7282 132.398 15.772C132.398 18.8157 130.527 20.9503 127.839 20.9503C126.099 20.9503 125.164 19.9752 124.848 19.435H124.716V24.9823H122.278V24.9954ZM127.299 18.763C128.867 18.763 129.934 17.5507 129.934 15.8247C129.934 14.0327 128.867 12.8863 127.285 12.8863C125.678 12.8863 124.663 14.1776 124.663 15.8247C124.663 17.643 125.783 18.763 127.299 18.763ZM139.355 20.9503C136.456 20.9503 134.401 18.7893 134.401 15.8642C134.401 12.7677 136.483 10.6727 139.355 10.6727C142.517 10.6727 144.23 13.0049 144.23 15.7588V16.523H136.746C136.825 18.0119 137.853 19.0133 139.421 19.0133C140.62 19.0133 141.529 18.4599 141.872 17.6561H144.138C143.651 19.6458 141.898 20.9503 139.355 20.9503ZM136.786 14.8101H141.911C141.793 13.4924 140.765 12.6096 139.355 12.6096C137.985 12.6096 136.944 13.5847 136.786 14.8101ZM149.237 20.7131C147.511 20.7131 146.549 19.6853 146.549 17.9592V6.74608H148.974V17.7352C148.974 18.2886 149.251 18.5917 149.764 18.5917H150.16V20.7131H149.237ZM153.704 9.60536C152.821 9.60536 152.202 9.06514 152.202 8.19549C152.202 7.3522 152.821 6.79878 153.704 6.79878C154.587 6.79878 155.206 7.3522 155.206 8.19549C155.206 9.06514 154.587 9.60536 153.704 9.60536ZM152.492 20.7131V10.9098H154.916V20.7131H152.492ZM157.881 20.7131V10.9098H160.2V12.0957H160.332C160.727 11.371 161.702 10.6595 163.099 10.6595C165.299 10.6595 166.656 12.2011 166.656 14.2962V20.6999H164.232V14.9287C164.232 13.7428 163.468 12.939 162.348 12.939C161.175 12.939 160.332 13.8746 160.332 15.1V20.7131H157.881Z" fill="#BABAE1"/>
<path fill-rule="evenodd" clip-rule="evenodd" d="M23.7048 27.5915H8.90762L11.3189 23.5595C12.3599 21.8202 14.2309 20.7661 16.2601 20.7661H23.7048V27.5915Z" fill="#BABAE1"/>
<path fill-rule="evenodd" clip-rule="evenodd" d="M0 1.35693H23.7045L19.6198 8.18234H0V1.35693Z" fill="#BABAE1"/>
<path fill-rule="evenodd" clip-rule="evenodd" d="M9.38101 12.0299C10.5142 10.1325 12.5697 8.97298 14.7834 8.97298H19.1843L7.98431 27.5914H0.0257263L9.38101 12.0299Z" fill="#BABAE1"/>
</g>
<defs>
<clipPath id="clip0_11_14">
<rect width="168" height="28" fill="white"/>
</clipPath>
</defs>
</svg>
