<svg width="67" height="28" viewBox="0 0 67 28" fill="none" xmlns="http://www.w3.org/2000/svg">
<g clip-path="url(#clip0_9_2)">
<path d="M28.7485 20.0971C27.907 20.5082 27.3006 21.2925 26.3422 21.5449C24.8552 21.9361 24.288 21.78 23.4863 20.4882C23.1928 20.0379 22.9776 20.1163 22.6448 20.3906C22.2466 20.7254 21.8212 21.0264 21.3729 21.2906C19.0444 22.4861 16.6966 21.349 16.5013 18.7468C16.293 16.7452 16.5522 14.7227 17.2584 12.8383C17.9647 10.9539 19.0988 9.25923 20.5713 7.88765C21.4792 7.07659 22.6259 6.58226 23.839 6.47897C25.0916 6.32223 25.9132 6.85091 26.6949 8.35724C26.9642 7.8495 27.4057 7.45438 27.9401 7.24282C28.4744 7.03126 29.0667 7.01709 29.6106 7.20289C30.7649 7.47653 31.1382 8.2204 30.6673 9.31628C29.6991 11.3762 28.8754 13.5008 28.2019 15.675C28.0452 16.2814 27.7131 17.1621 28.2604 17.4557C28.7917 17.7492 29.2566 16.9243 29.6883 16.4966C30.2908 15.8067 30.7321 14.9913 30.9801 14.1096C31.6257 12.2313 32.3304 10.3723 33.132 8.57241C33.856 6.94852 35.4015 6.51814 36.771 7.63328C37.2014 7.98529 37.3973 7.88764 37.7301 7.59408C38.054 7.31949 38.4086 7.08325 38.7868 6.89006C41.213 5.61818 43.3848 6.83162 43.5216 9.57065C43.6976 12.584 42.6024 15.2447 41.0762 17.7492C40.9393 17.9644 40.7826 18.1796 40.6265 18.4134C41.7808 18.2573 43.1111 16.8858 43.6817 15.244C44.4249 13.0522 45.2471 10.9003 46.1663 8.78694C47.0078 6.84956 48.2797 6.47829 50.0185 7.73024C50.3705 7.98462 50.508 7.86705 50.7425 7.67179C51.1572 7.30299 51.6257 6.99954 52.1319 6.77185C54.4405 5.71516 56.4171 6.8894 56.6516 9.4325C56.9059 12.4259 55.8101 15.048 54.3622 17.5526C54.2254 17.7877 54.0885 18.0023 53.971 18.2168C53.9125 18.2952 53.6973 18.3343 53.8341 18.4712C53.9318 18.5688 54.0693 18.4911 54.147 18.3736C54.8376 18.0019 55.4463 17.4951 55.937 16.8833C56.4276 16.2714 56.7901 15.5671 57.0029 14.8123C57.6641 12.5675 58.556 10.3971 59.6642 8.33596C59.8781 7.85336 60.2595 7.46456 60.7379 7.24148C61.2163 7.0184 61.7593 6.97615 62.2664 7.12254C63.6552 7.37692 64.0471 8.10086 63.4991 9.392C62.5386 11.4213 61.734 13.5209 61.0922 15.6724C60.9355 16.2595 60.6426 17.1402 61.0922 17.3939C61.6986 17.7067 62.1881 16.8851 62.6198 16.4355C63.1208 15.8795 63.5849 15.2913 64.0092 14.6748C64.3413 14.2052 64.7332 14.0106 65.2419 14.3228C65.7733 14.6549 65.5554 15.0859 65.2811 15.497C64.136 17.401 62.6812 19.1005 60.9766 20.5255C60.8023 20.6733 60.6194 20.8105 60.4287 20.9365C58.1984 22.4429 56.5353 21.6997 56.1827 18.9215C55.0387 19.7219 53.82 20.4099 52.5437 20.9757C51.0767 21.5258 49.5083 21.7524 47.9457 21.6399C47.2217 21.6007 46.7913 21.092 46.1849 20.5248C45.6762 22.3247 45.1887 24.0269 44.7178 25.7099C44.6593 25.9251 44.6202 26.1596 44.561 26.3741C44.2482 27.7635 43.9347 28.0764 42.9564 27.9787C42.3983 27.9522 41.8682 27.7264 41.4625 27.3422C41.0568 26.9581 40.8023 26.4411 40.7454 25.8853C40.7849 24.8783 40.9743 23.8829 41.3073 22.9317C41.5816 21.8358 41.9137 20.7599 42.2464 19.5445C39.253 21.1292 36.4157 22.6554 33.0311 20.7964C32.4788 22.3754 32.0085 23.982 31.6224 25.6096C31.5639 25.8248 31.5048 26.0593 31.4656 26.2738C31.0937 27.8778 30.8201 28.1335 29.6458 27.9342C28.2371 27.6991 27.3763 26.6431 27.6533 25.332C27.9661 23.8044 28.4165 22.3187 28.8077 20.7924C28.8661 20.5772 28.886 20.3428 28.9252 20.1283C29.0036 20.0692 29.0428 20.0107 28.9445 19.9522C28.8738 19.9928 28.808 20.0414 28.7485 20.0971ZM39.2165 10.2946C39.1381 9.86423 39.334 9.43116 38.9814 9.27708C38.6094 9.10107 38.3942 9.47235 38.199 9.70747C36.1679 12.0949 34.888 15.0296 34.5202 18.1424C34.481 18.4559 34.4418 18.8663 34.7938 19.0058C35.0874 19.1234 35.3251 18.8298 35.5177 18.6146C37.4838 16.2289 38.7625 13.3525 39.2165 10.2946ZM52.3258 10.373C52.2475 9.9034 52.4627 9.43383 52.0914 9.25782C51.7201 9.08182 51.4458 9.49294 51.2279 9.74731C49.2832 12.1582 48.0318 15.0534 47.6083 18.1218C47.5498 18.4346 47.5498 18.865 47.8434 19.0217C48.1755 19.1978 48.4305 18.8066 48.6258 18.5914C50.585 16.2403 51.8648 13.3984 52.3258 10.373ZM24.9336 10.5881C24.7967 10.0987 25.168 9.41392 24.6207 9.23792C24.1312 9.08184 23.8184 9.70748 23.564 10.1013C21.9694 12.4061 21.0107 15.0906 20.7845 17.8841C20.7646 18.2361 20.6278 18.7647 21.0781 18.9016C21.45 19.0191 21.7044 18.608 21.8996 18.3344C23.5811 16.0677 24.628 13.3939 24.9329 10.5881H24.9336Z" fill="#BABAE1"/>
<path d="M7.26532 17.1435C6.9525 18.3955 6.61976 19.6281 6.30693 20.8808C6.29371 21.0757 6.23764 21.2654 6.14271 21.4362C6.04779 21.607 5.91639 21.7547 5.75781 21.8689C5.59923 21.9831 5.4174 22.0609 5.22531 22.0967C5.03322 22.1326 4.8356 22.1256 4.64651 22.0763C4.25961 22.0698 3.87932 21.9749 3.53469 21.7989C3.19006 21.6229 2.89023 21.3705 2.65806 21.0609C2.4259 20.7513 2.26758 20.3928 2.19516 20.0127C2.12275 19.6326 2.13816 19.2409 2.24024 18.8677C3.24855 14.2907 4.75082 9.83686 6.7207 5.58429C7.09263 4.74279 7.79668 4.60601 8.55981 4.52764C11.338 4.27326 11.7292 4.80124 10.6725 7.32575C10.0462 8.85333 9.47701 10.3975 8.85269 12.0022C11.6116 11.3174 14.0379 8.04971 13.9203 5.34986C13.9076 4.99017 13.8232 4.63661 13.672 4.30999C13.5208 3.98337 13.3059 3.69025 13.0399 3.44784C12.7738 3.20543 12.462 3.01863 12.1228 2.89839C11.7835 2.77815 11.4237 2.72688 11.0644 2.74763C8.12943 2.66926 6.09442 4.21478 4.52964 6.52343C3.90521 7.40429 3.50861 8.42611 3.37529 9.49759C3.23848 10.6931 2.3578 11.1215 1.30111 10.5151C0.769103 10.1842 0.363948 9.68393 0.150933 9.09477C-0.0620823 8.5056 -0.0705576 7.86191 0.126853 7.26733C0.503667 5.94026 1.26657 4.75517 2.3186 3.86278C6.13358 0.517366 10.4972 -0.321488 15.232 1.43656C19.2629 2.9429 20.0845 7.11056 17.0917 10.3783C15.7378 11.807 14.0401 12.8646 12.1609 13.45C12.0265 13.468 11.8976 13.5147 11.7828 13.5869C11.6681 13.6592 11.5702 13.7553 11.4959 13.8687C11.4217 13.9821 11.3727 14.1102 11.3523 14.2443C11.3319 14.3783 11.3406 14.5152 11.3779 14.6455C11.6322 16.9349 12.0826 19.1459 13.5304 21.0435C14.2065 22.0582 15.2336 22.7873 16.4146 23.0907C17.5955 23.3941 18.8469 23.2504 19.9284 22.6873C20.2472 22.5336 20.5738 22.3964 20.9067 22.2762C21.0634 22.2208 21.2349 22.2239 21.3895 22.2849C21.5441 22.3459 21.6715 22.4608 21.7482 22.6083C21.8308 22.7502 21.864 22.9154 21.8427 23.0783C21.8215 23.2411 21.7469 23.3922 21.6306 23.5082C19.8307 25.7584 15.6239 27.108 13.0018 26.228C10.3411 25.328 9.04928 23.1954 8.20778 20.6908C7.83253 19.5305 7.67644 18.3364 7.26532 17.1435Z" fill="#BABAE1"/>
<path d="M66.1392 2.93827C66.1102 3.72651 65.7746 4.47231 65.204 5.01688C64.6334 5.56145 63.8728 5.86178 63.084 5.85398C62.7008 5.83644 62.3248 5.74343 61.9776 5.58027C61.6304 5.41711 61.3188 5.187 61.0607 4.90317C60.8026 4.61933 60.603 4.28732 60.4735 3.92621C60.344 3.5651 60.287 3.182 60.3058 2.79882C60.3498 2.02618 60.6938 1.30124 61.2645 0.77855C61.8352 0.255858 62.5875 -0.0232611 63.361 0.000673762C64.112 0.0418086 64.8187 0.369331 65.3355 0.91581C65.8524 1.46229 66.14 2.18611 66.1392 2.93827Z" fill="#BABAE1"/>
<path d="M54.0866 18.4347C54.0082 18.5522 53.8515 18.6106 53.7737 18.5323C53.6369 18.3955 53.8521 18.3563 53.9106 18.2779C53.9497 18.3171 54.0255 18.3755 54.0866 18.4347Z" fill="#BABAE1"/>
</g>
<defs>
<clipPath id="clip0_9_2">
<rect width="66.1412" height="28" fill="white"/>
</clipPath>
</defs>
</svg>
