<svg width="66" height="30" viewBox="0 0 66 30" fill="none" xmlns="http://www.w3.org/2000/svg">
<g clip-path="url(#clip0_16_36)">
<path d="M37.77 0.150003C37.005 0.375004 36.36 0.885004 36 1.53L35.625 2.175V15V27.825L36.03 28.5C36.27 28.92 36.675 29.325 37.08 29.55L37.725 29.925H50.55H63.375L64.02 29.55C64.425 29.325 64.83 28.92 65.07 28.5L65.475 27.825V15V2.175L65.1 1.53C64.875 1.125 64.47 0.720003 64.05 0.480003L63.375 0.0750046L50.775 0.0450039C43.845 0.0300045 37.995 0.0750046 37.77 0.150003ZM42.15 10.8V12.6H47.55H52.95V14.4V16.2H51.15H49.35V21.6V27H47.55H45.75V21.6V16.2H43.95H42.15V21.6V27H40.35H38.55V21.6V16.2H40.35H42.15V14.4V12.6H40.35H38.55V10.8V9H40.35H42.15V10.8Z" fill="#413edb"/>
<path d="M1.2 19.86V26.85H2.7H4.2V24.375V21.885L5.295 21.93L6.375 21.975L7.665 24.375L8.94 26.775L10.545 26.82C11.43 26.835 12.15 26.835 12.15 26.79C12.15 26.745 11.505 25.545 10.725 24.12C9.945 22.695 9.3 21.48 9.3 21.435C9.3 21.375 9.51 21.255 9.75 21.15C11.52 20.415 12.27 17.205 11.16 15.165C10.68 14.28 10.17 13.83 9.06 13.32C8.37 12.99 8.1 12.975 4.77 12.93L1.2 12.87V19.86ZM7.59 15.585C8.61 16.05 9 17.34 8.43 18.45C8.04 19.26 7.395 19.5 5.67 19.5H4.2V17.4V15.3H5.595C6.615 15.3 7.14 15.375 7.59 15.585Z" fill="#413edb"/>
<path d="M17.16 16.35C15.795 16.635 14.715 17.37 14.01 18.465C12.675 20.58 13.035 24.21 14.745 25.74C15.69 26.61 16.515 26.895 18.15 26.97C19.845 27.045 20.97 26.7 21.945 25.815C22.47 25.35 23.22 24.075 23.07 23.925C23.04 23.895 22.44 23.82 21.735 23.76C20.46 23.67 20.46 23.67 20.19 24.075C19.68 24.855 18.51 25.095 17.4 24.66C16.665 24.36 16.245 23.805 16.11 22.965L16.005 22.35H19.575H23.13L23.07 21.03C22.98 19.35 22.575 18.375 21.585 17.49C20.46 16.485 18.675 16.02 17.16 16.35ZM19.455 18.75C19.965 19.05 20.4 19.74 20.4 20.25C20.4 20.535 20.325 20.55 18.225 20.55C15.795 20.55 15.75 20.52 16.35 19.53C16.98 18.495 18.435 18.12 19.455 18.75Z" fill="#413edb"/>
<path d="M28.035 16.35C26.97 16.53 25.86 17.175 25.41 17.835C24.69 18.93 24.735 20.34 25.545 21.255C26.16 21.945 26.895 22.275 28.71 22.65C30.66 23.055 31.05 23.265 31.05 23.955C31.05 24.495 30.375 24.9 29.445 24.9C28.5 24.9 27.9 24.63 27.6 24.075L27.375 23.655L26.055 23.745C25.32 23.79 24.69 23.865 24.645 23.91C24.6 23.94 24.735 24.345 24.945 24.81C25.665 26.385 27.195 27.075 29.7 26.97C30.96 26.925 31.29 26.85 32.04 26.475C33.975 25.485 34.605 23.475 33.42 21.975C32.955 21.39 32.07 21 30.18 20.61C28.26 20.205 27.96 20.085 27.825 19.65C27.585 18.915 28.29 18.3 29.355 18.3C30.03 18.3 30.9 18.78 31.02 19.23C31.095 19.53 31.17 19.53 32.37 19.44C33.075 19.395 33.69 19.32 33.72 19.275C33.75 19.245 33.705 18.975 33.6 18.66C33.345 17.88 32.52 17.04 31.68 16.68C30.855 16.32 29.055 16.155 28.035 16.35Z" fill="#413edb"/>
</g>
<defs>
<clipPath id="clip0_16_36">
<rect width="65.55" height="30" fill="white"/>
</clipPath>
</defs>
</svg>
