<svg xmlns="http://www.w3.org/2000/svg" width="8192" height="2488" viewBox="0 0 8192 2488"><path fill="#5757C7" fill-rule="evenodd" d="M1071.773 2.491c-7.929 2.01-9.129 2.661-73.773 40.004-62.544 36.129-59.396 34.312-362 209.005C172.285 519.202 58.656 584.782 41 594.899c-21.565 12.358-29.651 19.392-34.879 30.347C-.534 639.19 0 585.215 0 1244.118c0 544.788.143 598.627 1.602 605.185C4.024 1860.185 8.518 1868.518 16 1876c6.042 6.042 16.583 12.313 149.5 88.943 130.046 74.974 361.72 208.691 711 410.373 184.715 106.658 186.232 107.522 191.886 109.254 12.44 3.809 27.448 2.577 38.873-3.192 4.366-2.205 132.433-75.953 263.741-151.877 17.325-10.017 59.4-34.316 93.5-53.997a1659590 1659590 0 0 0 258.5-149.225c51.425-29.69 166.625-96.188 256-147.772s164.3-95.034 166.5-96.556c9.1-6.294 16.242-16.201 19.792-27.451l2.208-7v-1207l-2.208-7c-3.548-11.244-10.674-21.132-19.792-27.461-2.2-1.527-19.975-11.993-39.5-23.258a8929224 8929224 0 0 1-676-390.272c-97.669-56.394-284.309-164.128-304.376-175.693-10.381-5.984-21.631-11.818-25-12.966-7.893-2.69-21.14-3.313-28.851-1.359M1019 151.899c-34.925 20.223-110.525 63.915-168 97.094L640 370.798c-58.575 33.815-145.65 84.079-193.5 111.698S330.025 549.733 294 570.535s-92.95 53.667-126.5 73.035l-61 35.213v1130.383l90.5 52.244c49.775 28.735 137.525 79.389 195 112.565s124.525 71.89 149 86.031 121.675 70.261 216 124.71c223.535 129.034 292.135 168.637 310.811 179.433 8.421 4.868 15.747 8.851 16.28 8.851.532 0 22.667-12.54 49.189-27.866s86.02-49.681 132.22-76.344c154.645-89.248 680.317-392.72 738.5-426.338l57.5-33.223V678.698l-89.5-51.674c-49.225-28.42-164.2-94.795-255.5-147.499s-202-116.612-246-142.02c-320.713-185.191-385.569-222.497-386.709-222.44-.71.035-29.866 16.611-64.791 36.834M6510.323 942.75c18.602.152 48.752.152 67-.001 18.247-.152 3.027-.277-33.823-.277s-51.78.125-33.177.278m-5.073 136c18.563.152 48.938.152 67.5 0 18.563-.153 3.375-.278-33.75-.278s-52.312.125-33.75.278M6902.465 1212c0 28.325.128 39.912.284 25.75.157-14.162.157-37.338 0-51.5-.156-14.162-.284-2.575-.284 25.75m-.007 132c0 23.375.131 32.938.291 21.25.16-11.687.16-30.812 0-42.5s-.291-2.125-.291 21.25m-5872.964 263.5c0 166.65.115 234.676.256 151.169s.141-219.857 0-303-.256-14.819-.256 151.831m228.999 20c0 155.65.116 219.176.257 141.169s.141-205.357 0-283-.257-13.819-.257 141.831"/><path fill="#5757C7" fill-rule="evenodd" d="M6358.112 731.484c-22.93 5.194-39.332 17.003-47.959 34.533-6.734 13.681-7.063 17.522-5.741 66.983.94 35.162-.537 84.495-2.824 94.311-1.924 8.259-6.392 12.34-15.588 14.237-1.925.398-23.075 1.012-47 1.365-42.022.621-43.721.721-50 2.948-9.391 3.331-16.442 7.641-22.954 14.031-7.751 7.605-12.371 14.892-16.235 25.608-3.15 8.736-3.246 9.469-3.246 25 0 15.456.108 16.298 3.17 24.771 7.822 21.651 21.206 35.335 41.978 42.92 5.436 1.985 8.483 2.157 50.287 2.829 24.475.394 45.817 1.068 47.427 1.498 1.609.431 4.828 2.685 7.153 5.01 7.598 7.597 7.167-19.107 4.453 275.972-.825 89.743-.258 134.091 1.889 147.736.543 3.445 1.716 11.664 2.609 18.264 3.916 28.955 14.27 62.2 26.591 85.373 30.611 57.575 83.513 91.19 157.878 100.317 15.468 1.899 64.501 1.608 78-.463 37.487-5.75 60.674-16.143 75.804-33.976 9.985-11.768 14.156-24.077 14.181-41.841.042-29.6-15.533-52.998-41.378-62.161-10.971-3.89-19.25-4.377-36.107-2.122-10.324 1.381-19.907 1.859-36.5 1.821-21.05-.049-23.206-.228-33.45-2.777-15.524-3.861-24.116-8.277-33.401-17.165-11.815-11.31-18.041-23.287-22.597-43.469-3.047-13.498-4.278-22.756-5.525-41.537-1.317-19.829-1.298-144.708.032-216.695.582-31.518 1.386-80.93 1.786-109.805.704-50.827.794-52.627 2.846-56.5 1.165-2.2 3.554-4.838 5.308-5.862 7.466-4.359 11.056-4.564 81.001-4.62 54.085-.043 67.776-.323 73.335-1.501 23.673-5.016 41.806-23.236 49.28-49.517 2.484-8.736 2.485-27.838.002-36.908-4.785-17.483-16.336-32.618-30.48-39.94-13.261-6.865-8.702-6.498-88.137-7.101l-72.5-.551-4.999-2.5c-8.359-4.181-11.535-11.003-11.834-25.414-.092-4.447.471-27.914 1.25-52.148 1.982-61.594.627-74.522-10.092-96.29-6.692-13.59-14.744-21.935-26.935-27.913-12.785-6.269-17.992-7.356-37.39-7.805-12.449-.288-18.71-.006-23.388 1.054M556.5 755.626c-17.49 4.449-31.645 14.987-39.836 29.657-5.325 9.537-7.07 16.607-7.087 28.717-.034 24.959 10.851 41.393 37.488 56.599 12.335 7.042 69.242 39.855 113.435 65.409 12.65 7.315 28.625 16.536 35.5 20.492s22.737 13.112 35.25 20.346c55.582 32.137 69.013 39.895 80.75 46.645 19.238 11.063 70.318 40.522 81.5 47.004 11.176 6.477 46.63 26.95 71 40.997 15.885 9.157 52.25 30.17 58 33.514 43.682 25.406 47.065 26.733 65.5 25.681 9.925-.567 18.052-2.819 25.397-7.037 2.257-1.296 12.653-7.305 23.103-13.354s36.55-21.12 58-33.491a208217 208217 0 0 0 140.5-81.106 25961 25961 0 0 1 35-20.199c6.875-3.956 22.85-13.177 35.5-20.492s40.325-23.293 61.5-35.508a87106 87106 0 0 0 61.5-35.508c30.6-17.694 44.64-25.789 65-37.479 35.446-20.351 40.993-23.876 47.698-30.311 31.155-29.904 19.664-82.506-21.398-97.956-6.672-2.51-8.461-2.743-20.8-2.706-16.375.049-17.87.551-40.635 13.638a24266 24266 0 0 0-63.865 36.814A87106 87106 0 0 1 1433 841.5a87106 87106 0 0 0-61.5 35.508A25037 25037 0 0 1 1336 897.5a51536 51536 0 0 0-70.5 40.705 98867 98867 0 0 1-97.5 56.299l-61.22 35.31-22.719 13.106-15.531-8.96a26378 26378 0 0 1-31.28-18.082c-20.92-12.116-11.413-6.627-77.75-44.889L898 935.517c-21.725-12.53-46.7-26.934-55.5-32.007-8.8-5.074-24.775-14.309-35.5-20.522-19.741-11.436-48.47-28.019-84-48.486-20.081-11.567-49.199-28.398-54.5-31.502-32.127-18.812-75.899-43.396-80.286-45.092-4.52-1.747-8.222-2.27-17.714-2.5-6.6-.159-12.9-.061-14 .218M2926 916.288c-.275.289-3.875.773-8 1.075-53.342 3.908-110.87 25.858-150.5 57.422-9.308 7.414-26.181 23.914-33.967 33.215-13.828 16.52-26.064 38.484-32.869 59-4.438 13.38-6.14 21.792-8.252 40.798-1.596 14.36-1.597 16.446-.023 34 1.984 22.109 3.562 31.549 7.593 45.424 9.067 31.208 22.884 54.588 46.016 77.863 20.654 20.782 39.333 33.857 71.375 49.961 28.391 14.269 47.164 21.489 115.627 44.469 66.742 22.401 75.717 25.788 98.264 37.08 38.783 19.423 59.371 40.66 66.798 68.905 2.573 9.785 3.121 28.225 1.085 36.5-2.773 11.268-7.916 19.797-18.131 30.066-26.861 27.003-71.876 40.929-132.305 40.933-24.361.001-35.541-.966-53.438-4.624-23.127-4.727-44.444-12.251-65.773-23.214-19.99-10.275-31.958-18.834-48.601-34.757-16.072-15.376-23.23-20.008-37.899-24.53-10.521-3.242-25.621-3.249-35.5-.014-23.173 7.586-40.991 26.048-49.79 51.591-2.824 8.198-3.122 10.225-3.164 21.549-.038 10.33.346 13.715 2.212 19.5 5.233 16.219 14.434 29.966 31.133 46.513 26.976 26.731 66.967 49.795 113.609 65.524 36.138 12.186 63.417 17.694 111.5 22.514 29.029 2.91 93.513-.594 118.5-6.439 1.1-.257 5.375-1.184 9.5-2.059s13.845-3.381 21.601-5.568c12.742-3.592 18.402-5.535 37.899-13.009 10.082-3.865 35.403-17.16 46.5-24.415 56.045-36.643 90.664-87.471 100.164-147.061 1.879-11.787 1.588-50.37-.475-63-3.839-23.495-8.971-40.164-17.756-57.669-21.098-42.041-56.479-74.086-112.433-101.83-31.575-15.656-57.546-25.647-126-48.473-74.565-24.863-107.894-40.963-129.606-62.607-9.67-9.639-15.404-18.588-19.557-30.522-2.46-7.067-2.754-9.321-2.793-21.399-.04-12.236.218-14.262 2.75-21.636 4.329-12.604 13.486-24.713 25.777-34.083 12.112-9.234 34.16-17.766 52.251-20.22 9.939-1.348 40.413-1.359 52.178-.02 52.468 5.975 105.561 29.566 136.033 60.443 11.595 11.749 18.891 17.375 27.967 21.565 17.597 8.123 34.223 8.904 52.631 2.473 15.794-5.518 31.458-19.75 39.275-35.682 5.985-12.199 7.594-18.906 7.594-31.653 0-16.293-5.205-30.072-17.826-47.187-6.444-8.739-20.671-23.194-30.674-31.165-38.58-30.742-94.604-54.957-154.5-66.778a4497 4497 0 0 1-8-1.585c-8.576-1.714-32.617-4.7-48.5-6.023-8.513-.71-49.026-1.66-49.5-1.161m4877.5 4.319c-5.888.463-26.686 2.428-31 2.929-27.857 3.238-62.861 11.422-91.943 21.497-53.716 18.608-101.727 49.566-124.718 80.418-6.974 9.357-15.18 25.457-17.336 34.009-1.764 6.997-1.964 21.217-.404 28.741 1.54 7.428 8.801 22.314 13.914 28.525 8.024 9.748 21.883 18.745 34.989 22.714 8.749 2.65 25.121 3.173 34.568 1.104 14.83-3.247 30.449-12.868 41.386-25.493 2.812-3.246 9.485-9.7 14.828-14.343 32.53-28.264 74.096-46.709 115.716-51.349 2.75-.306 5.319-.753 5.709-.992s9.411-.447 20.047-.462c43.782-.062 71.82 9.652 93.384 32.353 16.811 17.698 25.385 41.112 25.338 69.197-.036 21.902-4.983 38.291-14.691 48.669-5.304 5.67-11.993 8.705-20.438 9.273-11.811.795-42.303 3.629-49.884 4.637-4.144.551-9.271 1.225-11.394 1.497-5.145.658-35.535 5.325-38.071 5.845-1.1.226-6.05 1.164-11 2.084-120.367 22.379-215.211 68.234-262.762 127.04-19.517 24.137-34.262 53.196-39.576 78-4.52 21.094-4.662 22.611-4.645 49.5.015 24.998.173 27.265 2.784 40 10.158 49.537 30.501 88.351 64.655 123.358 19.977 20.477 38.878 34.499 64.044 47.515 23.561 12.184 45.665 19.925 73.5 25.739 31.084 6.492 82.777 7.25 127 1.861 6.6-.804 13.125-1.69 14.5-1.969s6.55-1.207 11.5-2.061c52.767-9.108 103.625-29.417 136.679-54.579 4.531-3.449 12.532-10.607 17.78-15.907 10.37-10.473 12.45-11.957 16.753-11.957 4.005 0 6.617 2.149 10.088 8.299 7.596 13.461 22.985 30.564 37.2 41.344 11.146 8.453 30.065 17.774 40.208 19.81 8.992 1.805 21.931 2.002 30.358.464 27.029-4.935 50.856-27.895 58.031-55.917 3.086-12.054.467-33.093-5.604-45.026-5.786-11.372-12.847-18.485-33.993-34.244-17.474-13.023-35.726-31.304-42.303-42.369-12.829-21.586-18.49-41.426-22.359-78.361-2.195-20.954-2.571-104.401-.57-126.5.697-7.7 2.174-26.15 3.282-41s2.427-29.7 2.929-33c.503-3.3 1.475-19.151 2.161-35.225.983-23.069.991-33.706.034-50.5-5.178-90.909-35.437-153.818-92.674-192.674-32.976-22.386-69.844-34.619-124-41.145-8.305-1.001-65.224-2.039-74-1.349m-3055.833 3.023c-.092.071-6.917.658-15.167 1.304-80.016 6.266-150.262 33.663-210.343 82.038-33.069 26.626-63.894 62.343-87.191 101.028-7.872 13.073-21.438 40.191-27.602 55.176-10.994 26.73-21.974 64.866-25.863 89.824-.899 5.775-2.039 12.75-2.531 15.5-4.599 25.666-4.575 88.005.045 115.5.509 3.025 1.637 10 2.509 15.5 5.007 31.605 17.594 72.565 31.498 102.5 18.69 40.241 44.29 77.339 73.391 106.358 43.067 42.943 96.64 73.718 156.963 90.165 40.472 11.035 75.184 15.473 121.056 15.475 15.363.001 31.788-.446 36.5-.994a7444 7444 0 0 1 22.568-2.569c46.001-5.165 98.192-21.22 141.17-43.425 31.124-16.081 54.214-32.635 75.874-54.396 22.81-22.918 32.921-39.471 38.362-62.807 2.608-11.188-.471-29.583-7.005-41.842-4.748-8.908-14.921-20.917-23.552-27.803-21.488-17.146-48.496-23.401-71.831-16.639-9.912 2.872-12.624 4.126-21.018 9.715-7.471 4.975-14.314 11.474-20.28 19.262-19.653 25.653-41.456 42.106-75.49 56.967-7.722 3.371-27.613 9.406-39.23 11.901-20.039 4.304-24.155 4.765-47.5 5.332-18.104.439-24.74.216-33.967-1.143-26.937-3.969-58.468-15.139-83.861-29.71-57.311-32.885-97.452-79.894-117.567-137.683-4.894-14.061-10.287-39.211-11.7-54.563-1.425-15.495-.648-48.102 1.456-61.101 15.566-96.146 80.466-177.204 164.15-205.022 17.028-5.66 22.901-7.031 40.726-9.511 22.76-3.166 49.5-2.131 75.263 2.913 12.04 2.357 29.179 8.098 44.5 14.907 15.352 6.822 39.162 23.936 48.906 35.152 17.901 20.606 29.057 29.509 44.27 35.333 8.094 3.099 8.767 3.188 24.324 3.206 14.867.017 16.517-.171 23.306-2.649 26.628-9.722 47.645-32.433 53.672-57.997 1.934-8.203 1.928-21.907-.013-30.52-2.09-9.274-11.052-26.933-19.134-37.698-14.055-18.724-40.041-41.211-64.384-55.715-12.172-7.252-41.334-21.674-51.447-25.441-38.295-14.269-74.793-22.339-113-24.986-7.606-.527-50.329-1.235-50.833-.842m-957.566 3.418c-96.349 7.09-184.849 46.697-250.123 111.938-49.352 49.328-84.439 112.047-100.984 180.514-8.967 37.106-12.852 75.367-11.576 114 1.156 34.979 5.135 64.136 12.966 95 18.814 74.15 59.238 141.306 113.848 189.133 11.07 9.695 13.231 11.455 25.268 20.579 27.504 20.848 67.09 41.482 103.5 53.949 18.665 6.391 49.16 13.906 68 16.757 27.073 4.098 45.083 5.232 76.256 4.8 17.184-.238 35.969-.959 41.744-1.602 10.407-1.16 34.652-4.62 38.5-5.495 1.1-.25 5.6-1.2 10-2.111 49.483-10.243 96.59-30.254 138.908-59.01 5.917-4.02 31.224-23.895 33.092-25.987.55-.617 4.695-4.392 9.212-8.389 9.692-8.577 28.432-29.791 40.055-45.343 28.928-38.705 51.022-85.844 63.17-134.781 7.456-30.033 10.11-47.919 12.616-85 1.759-26.04 1.308-42.022-2.138-75.757-5.155-50.474-23.238-106.88-48.33-150.756-7.999-13.987-21.503-34.303-29.43-44.276-3.385-4.259-7.352-9.312-8.816-11.227-11.647-15.248-38.609-41.095-59.339-56.883-23.849-18.163-36.292-25.976-61.396-38.549-31.118-15.585-57.636-24.978-93.604-33.156-9.491-2.158-30.371-5.443-47.5-7.473-11.292-1.338-59.8-1.912-73.899-.875m1815.399-.427c-5.213.337-22.012 1.99-29.5 2.902-8.754 1.066-25.565 3.833-31.5 5.184-39.651 9.025-62.256 16.685-94.241 31.933-92.046 43.883-165.91 130.277-195.667 228.86-5.39 17.856-6.253 21.066-8.605 32-1.183 5.5-2.346 10.9-2.584 12-1.832 8.467-4.541 28.778-6.201 46.5-.925 9.883-.903 59.212.032 69.866.404 4.601 1.426 14.051 2.272 21 1.343 11.039 2.062 15.732 4.154 27.134 11.57 63.058 41.591 127.147 82.21 175.5 9.802 11.669 33.169 35.014 44.63 44.588 46.345 38.717 102.477 66.187 162.5 79.525 6.325 1.406 12.4 2.713 13.5 2.906 16.346 2.862 22.17 3.727 34.5 5.125 19.01 2.157 69.451 2.985 85 1.397 34.483-3.523 58.231-7.702 82-14.431 17.517-4.959 26.096-7.953 48.474-16.918 7.809-3.129 35.495-17.249 44.704-22.8 11.973-7.217 28.671-18.623 37.418-25.558 16.975-13.459 21.962-17.854 34.406-30.314 32.115-32.158 58.875-71.623 77.317-114.026 14.864-34.175 23.929-67.189 30.202-109.994 2.313-15.786 2.953-28.429 2.961-58.5.009-30.646-.436-39.303-2.953-57.5-9.035-65.314-32.088-124.938-67.855-175.5-20.387-28.82-43.252-53.08-72.174-76.577-50.175-40.762-118.786-70.428-185-79.99l-10.5-1.514c-15.808-2.269-62.357-3.907-79.5-2.798m1670 7.016c-2.2.232-10.975 1.555-19.5 2.94-73.941 12.013-142.012 44.838-183.083 88.285-8.194 8.669-10.039 10.138-12.727 10.138-2.234 0-3.609-.71-4.752-2.454-1.396-2.131-1.517-4.803-.914-20.25.751-19.251-.06-26.906-3.793-35.796-2.982-7.101-8.253-15.29-13.082-20.325-16.058-16.739-46.264-25.334-73.012-20.775-21.438 3.655-35.542 10.306-47.718 22.505-8.8 8.816-13.85 17.903-16.454 29.607-1.523 6.847-1.572 11.518-.55 52.253 2.792 111.286 3.253 156.993 2.751 273.235-.288 66.825-1.009 134.1-1.603 149.5-1.354 35.124-4.094 155.293-4.059 178 .03 19.861 1.151 25.875 6.988 37.484 9.483 18.862 28.667 32.56 52.491 37.481 9.799 2.024 29.369 1.996 39.302-.056 27.095-5.596 45.849-23.246 52.819-49.707 3.2-12.152 3.333-15.412 2.151-52.702-3.825-120.654-4.011-342.353-.301-359.352 5.601-25.665 13.955-43.89 29.404-64.148 6.192-8.12 23.951-26.314 33.142-33.953 27.977-23.256 63.785-42.987 102.432-56.442 21.95-7.642 40.055-11.638 75.245-16.605 36.649-5.173 63.07-25.134 73.462-55.5 3.021-8.827 3.255-10.457 3.304-23 .045-11.463-.3-14.626-2.289-20.965-7.425-23.664-21.36-38.362-43.77-46.164-8.336-2.903-9.902-3.111-25.384-3.375-9.075-.155-18.3-.091-20.5.141M443.347 954.029c-16.812 3.024-32.724 14.316-41.178 29.222-10.886 19.192-9.758 44.629 2.771 62.469 6.203 8.833 12.41 14.24 24.306 21.173 12.256 7.142 43.35 25.141 63.254 36.615 8.8 5.072 26.35 15.203 39 22.511 12.65 7.309 28.625 16.525 35.5 20.481s22.85 13.177 35.5 20.492 40.325 23.293 61.5 35.508a87106 87106 0 0 1 61.5 35.508c12.65 7.315 28.625 16.536 35.5 20.492s22.737 13.112 35.25 20.346c52.938 30.608 68.929 39.847 80.75 46.656l22.74 13.099 10.239 5.899.011 284.02.01 284.02 2.068 7.464c5.911 21.33 21.487 36.963 42.932 43.089 7.058 2.016 24.309 1.564 31.674-.829 9.254-3.008 18.858-8.796 25.324-15.262 7.304-7.304 14.276-20.72 15.92-30.633.839-5.059 1.066-87.492.861-312.869l-.279-306-2.118-5.522c-4.327-11.284-7.652-16.492-15.309-23.978-7.004-6.849-11.098-9.463-47.122-30.1-37.946-21.738-82.029-47.122-101.951-58.705-5.225-3.038-19.4-11.228-31.5-18.199-34.418-19.829-53.416-30.795-74.5-43.002a61128 61128 0 0 0-58.5-33.792l-61.5-35.486-35-20.196c-6.875-3.967-22.85-13.199-35.5-20.516-72.388-41.87-87.256-50.157-93.361-52.043-7.562-2.335-21.393-3.264-28.792-1.932m1260.416-.062c-6.762 1.233-13.495 3.637-19.263 6.878-5.77 3.242-34.842 19.989-68 39.172a18683 18683 0 0 1-39.5 22.787c-9.075 5.215-17.85 10.262-19.5 11.217l-18.5 10.707c-36.41 21.076-62.317 36.05-74 42.772a48002 48002 0 0 0-70.5 40.709c-7.15 4.138-24.925 14.4-39.5 22.805a189781 189781 0 0 0-123.5 71.269 16734 16734 0 0 1-38.5 22.172c-27.595 15.832-32.174 18.885-38.384 25.593-3.026 3.269-7.109 9.208-9.073 13.198-7.087 14.398-6.593-11.302-6.304 327.993l.261 306.261 2.127 5.548c5.632 14.694 12.393 23.814 22.825 30.792 13.633 9.118 27.035 12.357 42.402 10.247 10.211-1.402 23.777-7.492 31.349-14.074 6.229-5.415 13.976-17.162 16.921-25.658l2.376-6.855.259-286.135c.204-226.395.517-286.347 1.5-287.151.682-.559 8.441-5.18 17.241-10.268s20.275-11.73 25.5-14.76 20.975-12.122 35-20.205c36.691-21.148 96.986-55.937 100.5-57.987 6.468-3.773 35.975-20.825 54.5-31.495 23.476-13.523 57.349-33.069 61.5-35.489 4.893-2.852 40.755-23.577 58-33.518 8.8-5.072 26.35-15.2 39-22.506 12.65-7.305 30.2-17.423 39-22.483 62.868-36.149 58.63-33.535 66.311-40.906 19.803-19.004 23.327-51.007 8.21-74.565-7.072-11.02-21.038-21.304-33.521-24.684-6.465-1.75-20.684-2.485-26.737-1.381M3805 1061.106c-48.429 4.789-84.059 16.83-119.5 40.388-58.286 38.742-94.751 99.454-105.711 176.006-1.75 12.219-1.752 69.758-.003 82 4.467 31.276 12.106 56.989 24.708 83.173 15.457 32.114 35.639 57.958 61.506 78.765 27.581 22.185 57.831 37.112 92 45.398 20.185 4.896 31.608 6.279 56.5 6.846 43.276.984 77.252-5.36 111.885-20.893 75.019-33.645 125.625-106.006 136.119-194.635 4.142-34.987 2.709-70.319-4.164-102.654-19.859-93.425-83.24-162.566-170.84-186.365-14.205-3.859-25.243-5.724-45-7.605-17.293-1.646-24.333-1.726-37.5-.424m1805 .443c-25.004 2.563-42.4 6.319-63 13.601-49.657 17.553-93.785 52.688-120.996 96.34-16.833 27.003-29.121 59.07-34.947 91.198-2.172 11.977-5.054 44.182-5.04 56.312.014 12.132 2.844 43.204 5.034 55.282 5.024 27.706 16.442 59.849 29.167 82.107 23.402 40.937 54.753 70.799 96.251 91.68 38.333 19.288 73.841 26.765 121.531 25.59 23.848-.588 36.936-2.095 54-6.216 44.849-10.831 81.119-31.256 112.038-63.092 17.57-18.09 29.353-34.55 40.7-56.851 29.707-58.386 37.116-134.129 19.759-202-8.431-32.966-23.867-65.237-44.484-93-9.738-13.112-31.769-35.027-45.27-45.03-24.148-17.893-52.55-31.545-80.794-38.835-15.599-4.027-21.837-5.049-43.452-7.12-18.164-1.74-23.242-1.736-40.497.034m2301.5 260.59c-2.75.481-11.975 1.76-20.5 2.841-8.525 1.08-16.625 2.179-18 2.442-1.375.262-8.35 1.408-15.5 2.546-45.983 7.323-96.499 20.789-128.5 34.256-67.463 28.39-98.919 63.949-98.877 111.776.046 52.342 37.401 92.054 95.616 101.646 12.973 2.138 46.472 2.371 64.261.446 42.466-4.593 77.458-18.194 103.691-40.305 28.597-24.102 46.977-61.457 52.3-106.294 2.943-24.79 2.072-78.013-1.506-91.996-3.172-12.394-10.602-18.612-21.947-18.366-3.321.073-8.288.526-11.038 1.008"/></svg>
