<svg width="69" height="40" viewBox="0 0 69 40" fill="none" xmlns="http://www.w3.org/2000/svg">
<path d="M12.3769 3.91579H12.04L11.7032 4L11.3663 4.12631L11.0716 4.29473L10.7769 4.50526L10.5242 4.75789L10.3979 4.88421L10.2716 5.01052L10.1032 5.34737L10.0611 5.38947L10.019 5.47368L11.1979 6.18947L11.2821 6.02105L11.4084 5.93684L11.5348 5.81052L11.7032 5.72631L11.8295 5.68421L11.9979 5.6421L12.1663 5.6H12.3769H12.5453L12.7558 5.6421L12.8821 5.68421L13.0505 5.72631L13.1769 5.81052L13.3032 5.93684L13.4295 6.02105L13.5558 6.18947L14.7348 5.47368L14.6927 5.38947L14.6505 5.34737L14.44 5.01052L14.2295 4.75789L13.9769 4.50526L13.7242 4.29473L13.3874 4.12631L13.219 4.0421L13.0505 4L12.7137 3.91579H12.3769Z" fill="#BABAE1"/>
<path d="M45.8084 3.91579H45.4716L45.1348 4L44.7979 4.12631L44.5032 4.29473L44.2084 4.50526L43.9558 4.75789L43.8295 4.88421L43.7453 5.01052L43.5769 5.34737L43.5348 5.38947L43.4505 5.47368L44.6716 6.18947L44.7558 6.02105L44.8821 5.93684L45.0084 5.81052L45.1348 5.72631L45.3032 5.68421L45.4716 5.6421L45.64 5.6H45.8084H46.019L46.1874 5.6421L46.3558 5.68421L46.5242 5.72631L46.6505 5.81052L46.7769 5.93684L46.8611 6.02105L46.9874 6.18947L48.1663 5.47368L48.1242 5.38947L48.0821 5.34737L47.9137 5.01052L47.6611 4.75789L47.4084 4.50526L47.1558 4.29473L46.819 4.12631L46.6505 4.0421L46.5242 4L46.1874 3.91579H45.8084Z" fill="#BABAE1"/>
<path d="M7.32423 8.96841L5.59791 12.8L3.8716 8.96841H1.00844L4.7137 16.4632H6.44002L10.1874 8.96841H7.32423Z" fill="#BABAE1"/>
<path d="M11.0716 16.4632H13.5979V8.96841H11.0716V16.4632Z" fill="#BABAE1"/>
<path d="M18.4821 11.1579H19.9137V8.96842H18.4821V6.69473H15.9137V8.96842H15.0716V11.1579H15.9137V16.4632H18.4821V11.1579Z" fill="#BABAE1"/>
<path d="M33.9769 11.0316L34.1032 10.9474L34.2295 10.9053L34.3979 10.8632H34.5242H34.6927L34.8611 10.9053L34.9874 10.9474L35.1558 11.0316L35.2821 11.1579L35.3663 11.2842L35.4505 11.4105L35.5348 11.5368L35.5769 11.7474L35.619 11.8737V12L35.6611 12.3368V12.5474V12.7579V16.4632H38.1874V12.7579L38.2295 12.2947L38.2716 11.9158L38.3137 11.7474L38.3558 11.621L38.3979 11.4526L38.4821 11.3684L38.5663 11.2421L38.6505 11.1579L38.8611 10.9895L38.9874 10.9474L39.1137 10.9053H39.24H39.4084H39.5769L39.7032 10.9474L39.8295 10.9895L39.9558 11.0737L40.0821 11.1579L40.1663 11.2421L40.2505 11.3684L40.3348 11.5368L40.3769 11.7474L40.419 12L40.4611 12.3368V12.5474V12.7579V16.4632H43.0295V11.5789V11.2421L42.9874 10.9474L42.9032 10.6526L42.8611 10.4L42.7769 10.1474L42.6505 9.93684L42.5242 9.72631L42.3979 9.51579L42.2295 9.34737L42.0611 9.22105L41.8506 9.09473L41.64 9.01052L41.3874 8.92631L41.1348 8.8421H40.8821H40.5874H40.2084L39.8295 8.92631L39.4927 9.01052L39.1979 9.17894L38.8611 9.34737L38.6084 9.6L38.3558 9.89473L38.1453 10.2316L37.9348 9.89473L37.8084 9.72631L37.6821 9.6L37.4295 9.34737L37.2611 9.26315L37.1348 9.17894L36.9663 9.09473L36.7979 9.01052L36.6295 8.96842L36.4611 8.92631L36.2505 8.88421L36.0821 8.8421H35.7032H35.3663H35.1979L35.0295 8.88421L34.7348 8.96842L34.4821 9.05263L34.1874 9.22105L33.9348 9.38947L33.64 9.6L33.3874 9.89473V8.96842H30.819V16.4632H33.3874V12.7579V12.3368L33.4295 11.9579L33.4716 11.6632L33.5558 11.4526L33.5979 11.3263L33.7242 11.2421L33.8084 11.1158L33.9769 11.0316Z" fill="#BABAE1"/>
<path d="M44.5874 16.4632H47.1137V8.96841H44.5874V16.4632Z" fill="#BABAE1"/>
<path d="M23.8295 11.4947L23.9558 11.3684L24.0821 11.2421L24.3769 11.0737L24.6716 10.9895L24.84 10.9474H25.0084H25.1769L25.3453 10.9895L25.4716 11.0316L25.64 11.0737L25.7663 11.1158L25.8926 11.2L26.019 11.3263L26.1453 11.4526L26.2295 11.5789L26.3137 11.7053L26.3979 11.8316L26.4821 12L26.5663 12.3368L26.6084 12.5053V12.6737V12.8421V13.0526L26.5663 13.2211L26.5242 13.3895L26.44 13.5158L26.3558 13.6421L26.3137 13.6842L26.2716 13.7684L26.1874 13.8947L26.0611 14.0211L25.9769 14.0632L25.9348 14.1053H25.8926L25.8084 14.1895L25.64 14.3158L25.4716 14.3579L25.3453 14.4L25.1769 14.4421H25.0084H24.84L24.6716 14.4L24.3769 14.3158L24.0821 14.1474L23.9558 14.0211L23.8295 13.9368L23.7032 13.8105L23.619 13.6842L23.5348 13.5158L23.4926 13.3895L23.4084 13.1789L23.3663 13.0526L23.3242 12.8842V12.7158V12.5474L23.3663 12.3789L23.4505 12.0421L23.5769 11.7474L23.8295 11.4947ZM26.5663 16.4632H29.1348V8.96842H26.5663V9.68421L26.44 9.55789L26.3137 9.43158L26.0611 9.26316L25.8084 9.09474L25.5558 8.96842L25.2611 8.84211L24.9663 8.75789L24.6295 8.71579H24.2926H23.9137L23.5348 8.75789L23.1979 8.84211L22.8611 8.96842L22.5663 9.13684L22.2716 9.34737L21.9769 9.6L21.7242 9.85263L21.4716 10.1474L21.2611 10.4842L21.0926 10.8211L20.9663 11.1579L20.84 11.4947L20.7558 11.8737L20.7137 12.2947V12.7158V13.0947L20.7558 13.5158L20.84 13.8947L20.9663 14.2737L21.0084 14.4421L21.0926 14.6105L21.1769 14.7789L21.2611 14.9474L21.4716 15.2842L21.7242 15.5789L21.9769 15.8316L22.2716 16.0842L22.5663 16.2947L22.9032 16.4632L23.24 16.5895L23.5769 16.6737L23.9558 16.7158L24.3348 16.7579L24.6716 16.7158L24.84 16.6737L25.0084 16.6316L25.1348 16.5895L25.3032 16.5474L25.5979 16.4211L25.64 16.3789L25.7242 16.3368L25.8505 16.2526L26.1032 16.0842L26.2295 15.9579L26.2716 15.9158L26.3558 15.8737L26.44 15.7474L26.5663 15.6211V16.4632Z" fill="#BABAE1"/>
<path d="M52.6716 10.9053H52.84L53.0084 10.9474H53.1769L53.3032 11.0316L53.4295 11.1158L53.5137 11.2L53.5979 11.3263L53.6821 11.4526L53.7242 11.5368L53.7663 11.6632V11.7474L53.8084 11.9158V12.0842L53.8505 12.2526V12.4632V12.6737V16.4632H56.419V11.7053L56.3769 11.4947V11.3263V10.9895L56.2926 10.6947V10.5684L56.2505 10.4842L56.1663 10.2316L56.04 10.0211L55.9137 9.81053L55.7453 9.64211L55.5348 9.43158L55.3242 9.26316L55.0716 9.09474L54.819 8.96842L54.5663 8.88421L54.2716 8.84211L53.9769 8.8H53.6821H53.3032H53.0926L52.9663 8.84211L52.7558 8.88421L52.6295 8.92632L52.5032 8.96842L52.3769 9.05263L52.0821 9.17895L51.8295 9.34737L51.5769 9.6L51.3242 9.89474V8.96842H48.7979V16.4632H51.3242V12.4211L51.3663 12.0842V11.9158L51.4084 11.7895L51.5348 11.4947L51.619 11.3684L51.7032 11.2842L51.7874 11.2L51.8716 11.1158L52.1242 10.9895L52.3769 10.9053H52.6716Z" fill="#BABAE1"/>
<path d="M45.3032 19.5368L44.9663 20L44.5874 20.5053L44.419 20.7158L44.3348 20.8421L44.2927 20.8842L44.2506 20.9684L43.8716 21.4316L43.7874 21.4737L43.7453 21.5158L43.6611 21.6421L43.4927 21.8947L43.2821 22.1053L43.24 22.1474L43.1979 22.1895L43.1137 22.3158L42.9032 22.5263L42.819 22.5684L42.7769 22.6105L42.6927 22.7368L42.5663 22.8211L42.5242 22.9053L42.4821 22.9474L42.2716 23.1579L42.1874 23.2421L42.1032 23.2842L42.0611 23.3684L41.8506 23.5789L41.64 23.7474L41.5137 23.8316L41.4716 23.9158L41.4295 23.9579L41.0084 24.3789H40.9242L40.8821 24.4211L40.7558 24.5474L40.5453 24.7158L40.0821 25.0947L39.619 25.4737L39.1137 25.8105L38.5242 26.2316L37.8927 26.6105L37.3032 26.9474L37.0084 27.1158L36.7137 27.2842L36.3769 27.4526L36.2084 27.4947L36.1242 27.5368L36.0821 27.5789L35.4506 27.8737L34.8611 28.1263L34.2295 28.3789L33.5979 28.5474L33.0084 28.7158L32.3769 28.8842L31.7453 29.0105L31.1137 29.0947H30.819L30.5242 29.1789H29.8927L29.5558 29.2211H29.3874H29.3032H29.2611L28.6295 29.1789H27.9979L27.3663 29.0947L26.7348 29.0105L26.1032 28.8842L25.4716 28.7158L24.84 28.5474L24.2505 28.3789L23.619 28.1263L23.0295 27.8737L22.3979 27.5789L21.8084 27.2842L21.1769 26.9474L20.5874 26.6105L19.9558 26.2316L19.3663 25.8105L18.8611 25.4737L18.3979 25.0947L17.9348 24.7158L17.5137 24.3789L17.0505 23.9579L16.6295 23.5789L15.7874 22.7368L14.9874 21.8947L14.6084 21.4316L14.2295 20.9684L13.5137 20L13.1769 19.5368L12.8821 19.0316L11.7032 19.7474L11.9979 20.4211L12.3348 21.0526L12.6716 21.6842L13.0505 22.2737L13.4295 22.8632L13.8505 23.4526L14.2716 24L14.6927 24.5474L15.1558 25.0526L15.619 25.5579L16.1242 26.0632L16.6295 26.5263L17.1769 26.9895L17.7242 27.4105L18.2716 27.8316L18.8611 28.2526L19.4505 28.5895L20.04 28.9684L20.6716 29.3053L21.2611 29.6L21.8927 29.8947L22.5242 30.1474L23.1558 30.3579L23.8295 30.5684L24.4611 30.7789L25.1348 30.9053L25.8084 31.0316L26.4821 31.1579L27.1558 31.2421L27.8295 31.3263L28.5453 31.3684H29.2611H29.5979H29.6821H29.7663H29.9348L30.6505 31.3263L30.9874 31.2842L31.3242 31.2421L31.6611 31.2H31.8295L32.04 31.1579L32.3348 31.1158L32.6716 31.0316L33.0084 30.9895L33.3453 30.9053L34.019 30.7789L34.3558 30.6526L34.6927 30.5684L35.3242 30.3579L35.619 30.2316L35.7874 30.1895L35.9558 30.1474L36.0821 30.0632L36.2505 30.0211L36.5874 29.8947L37.219 29.6L37.8084 29.3053L38.44 28.9684L38.7348 28.8L38.8611 28.6737L39.0295 28.5895L39.619 28.2526L39.9137 28.0421L40.2084 27.8316L40.7558 27.4105L41.3032 26.9895L41.8506 26.5263L42.3558 26.0632L42.8611 25.5579L43.3242 25.0526L43.7874 24.5474L44.2084 24L44.419 23.7053L44.5453 23.5789L44.6295 23.4526L45.0506 22.8632L45.4295 22.2737L45.8084 21.6842L45.8927 21.5158L45.9769 21.3474L46.1453 21.0526L46.4821 20.4211L46.819 19.7474L45.64 19.0316L45.3032 19.5368Z" fill="#BABAE1"/>
<path d="M60.6716 8.71578L60.2927 8.75789L59.9558 8.8421L59.619 8.96841L59.2821 9.13683L58.9874 9.34736L58.6927 9.59999L58.44 9.89473L58.1874 10.1895L57.9769 10.5263L57.8084 10.8631L57.6821 11.2L57.5558 11.5368L57.4716 11.9158L57.4295 12.3368V12.7579V13.1368L57.4716 13.5579L57.5558 13.9368L57.6821 14.3158L57.7242 14.4842L57.8084 14.6526L57.8927 14.821L57.9769 14.9895L58.1874 15.3263L58.44 15.621L58.6927 15.8737L58.9874 16.1263L59.2821 16.3368L59.619 16.5053L59.9558 16.6316L60.2927 16.7158L60.6716 16.7579L61.0506 16.8L61.3874 16.7579L61.5558 16.7158L61.7242 16.6737L61.8506 16.6316L62.019 16.5895L62.3137 16.4631L62.3558 16.421L62.44 16.3789L62.5663 16.2947L62.819 16.1263L62.9874 16L63.0295 15.9579L63.1137 15.9158L63.1979 15.7895L63.3242 15.6631V16.5053H65.8506V8.96841H63.3242V9.6842L63.1979 9.55789L63.0716 9.43157L62.819 9.22104L62.5663 9.05262L62.3137 8.92631L62.019 8.79999L61.8506 8.75789L61.7242 8.71578L61.3874 8.67368H61.0506L60.6716 8.71578ZM61.5979 14.4L61.4295 14.3579L61.1348 14.2737L60.84 14.1053L60.7137 13.9789L60.5874 13.8526L60.4611 13.7263L60.3769 13.6L60.2927 13.4316L60.2506 13.3053L60.1663 13.1368L60.1242 12.9684L60.0821 12.8V12.6316V12.4631L60.1242 12.2947L60.2084 11.9579L60.3348 11.6631L60.5453 11.4105L60.6716 11.2842L60.7979 11.1579L61.0927 10.9895L61.3874 10.9053L61.5558 10.8631H61.7242H61.8927L62.0611 10.9053L62.1874 10.9474L62.3558 10.9895L62.4821 11.0316L62.6085 11.1158L62.7348 11.2421L62.8611 11.3684L62.9453 11.4947L63.0295 11.621L63.1137 11.7474L63.1979 11.9158L63.2821 12.2526L63.3242 12.421V12.5895V12.7579L63.2821 12.9263L63.24 13.0947L63.1979 13.2631L63.1137 13.3895L63.0295 13.5158L62.9874 13.5579L62.9453 13.6421L62.8611 13.7684L62.7348 13.8947L62.6506 13.9368L62.6085 13.9789H62.5663L62.4821 14.0631L62.3558 14.1474L62.1874 14.1895L62.0611 14.2316L61.8927 14.2737H61.7242L61.5979 14.4Z" fill="#BABAE1"/>
</svg>
