<svg width="1200" height="630" viewBox="0 0 1200 630" fill="none" xmlns="http://www.w3.org/2000/svg">
<g clip-path="url(#clip0_2004_2)">
<rect width="1200" height="630" fill="white"/>
<rect width="1200" height="630" fill="white"/>
<circle cx="69.5" cy="69.5" r="2.5" fill="#4B4B4B"/>
<circle cx="131.5" cy="69.5" r="2.5" fill="#4B4B4B"/>
<circle cx="193.5" cy="69.5" r="2.5" fill="#4B4B4B"/>
<circle cx="255.5" cy="69.5" r="2.5" fill="#4B4B4B"/>
<circle cx="317.5" cy="69.5" r="2.5" fill="#4B4B4B"/>
<circle cx="379.5" cy="69.5" r="2.5" fill="#4B4B4B"/>
<circle cx="441.5" cy="69.5" r="2.5" fill="#4B4B4B"/>
<circle cx="503.5" cy="69.5" r="2.5" fill="#4B4B4B"/>
<circle cx="565.5" cy="69.5" r="2.5" fill="#4B4B4B"/>
<circle cx="627.5" cy="69.5" r="2.5" fill="#4B4B4B"/>
<circle cx="689.5" cy="69.5" r="2.5" fill="#4B4B4B"/>
<circle cx="751.5" cy="69.5" r="2.5" fill="#4B4B4B"/>
<circle cx="813.5" cy="69.5" r="2.5" fill="#4B4B4B"/>
<circle cx="875.5" cy="69.5" r="2.5" fill="#4B4B4B"/>
<circle cx="937.5" cy="69.5" r="2.5" fill="#4B4B4B"/>
<circle cx="999.5" cy="69.5" r="2.5" fill="#4B4B4B"/>
<circle cx="1061.5" cy="69.5" r="2.5" fill="#4B4B4B"/>
<circle cx="1123.5" cy="69.5" r="2.5" fill="#4B4B4B"/>
<circle cx="69.5" cy="131.5" r="2.5" fill="#4B4B4B"/>
<circle cx="131.5" cy="131.5" r="2.5" fill="#4B4B4B"/>
<circle cx="193.5" cy="131.5" r="2.5" fill="#4B4B4B"/>
<circle cx="255.5" cy="131.5" r="2.5" fill="#4B4B4B"/>
<circle cx="317.5" cy="131.5" r="2.5" fill="#4B4B4B"/>
<circle cx="379.5" cy="131.5" r="2.5" fill="#4B4B4B"/>
<circle cx="441.5" cy="131.5" r="2.5" fill="#4B4B4B"/>
<circle cx="503.5" cy="131.5" r="2.5" fill="#4B4B4B"/>
<circle cx="565.5" cy="131.5" r="2.5" fill="#4B4B4B"/>
<circle cx="627.5" cy="131.5" r="2.5" fill="#4B4B4B"/>
<circle cx="689.5" cy="131.5" r="2.5" fill="#4B4B4B"/>
<circle cx="751.5" cy="131.5" r="2.5" fill="#4B4B4B"/>
<circle cx="813.5" cy="131.5" r="2.5" fill="#4B4B4B"/>
<circle cx="875.5" cy="131.5" r="2.5" fill="#4B4B4B"/>
<circle cx="937.5" cy="131.5" r="2.5" fill="#4B4B4B"/>
<circle cx="999.5" cy="131.5" r="2.5" fill="#4B4B4B"/>
<circle cx="1061.5" cy="131.5" r="2.5" fill="#4B4B4B"/>
<circle cx="1123.5" cy="131.5" r="2.5" fill="#4B4B4B"/>
<circle cx="69.5" cy="193.5" r="2.5" fill="#4B4B4B"/>
<circle cx="131.5" cy="193.5" r="2.5" fill="#4B4B4B"/>
<circle cx="193.5" cy="193.5" r="2.5" fill="#4B4B4B"/>
<circle cx="255.5" cy="193.5" r="2.5" fill="#4B4B4B"/>
<circle cx="317.5" cy="193.5" r="2.5" fill="#4B4B4B"/>
<circle cx="379.5" cy="193.5" r="2.5" fill="#4B4B4B"/>
<circle cx="441.5" cy="193.5" r="2.5" fill="#4B4B4B"/>
<circle cx="503.5" cy="193.5" r="2.5" fill="#4B4B4B"/>
<circle cx="565.5" cy="193.5" r="2.5" fill="#4B4B4B"/>
<circle cx="627.5" cy="193.5" r="2.5" fill="#4B4B4B"/>
<circle cx="689.5" cy="193.5" r="2.5" fill="#4B4B4B"/>
<circle cx="751.5" cy="193.5" r="2.5" fill="#4B4B4B"/>
<circle cx="813.5" cy="193.5" r="2.5" fill="#4B4B4B"/>
<circle cx="875.5" cy="193.5" r="2.5" fill="#4B4B4B"/>
<circle cx="937.5" cy="193.5" r="2.5" fill="#4B4B4B"/>
<circle cx="999.5" cy="193.5" r="2.5" fill="#4B4B4B"/>
<circle cx="1061.5" cy="193.5" r="2.5" fill="#4B4B4B"/>
<circle cx="1123.5" cy="193.5" r="2.5" fill="#4B4B4B"/>
<circle cx="69.5" cy="255.5" r="2.5" fill="#4B4B4B"/>
<circle cx="131.5" cy="255.5" r="2.5" fill="#4B4B4B"/>
<circle cx="193.5" cy="255.5" r="2.5" fill="#4B4B4B"/>
<circle cx="255.5" cy="255.5" r="2.5" fill="#4B4B4B"/>
<circle cx="317.5" cy="255.5" r="2.5" fill="#4B4B4B"/>
<circle cx="379.5" cy="255.5" r="2.5" fill="#4B4B4B"/>
<circle cx="441.5" cy="255.5" r="2.5" fill="#4B4B4B"/>
<circle cx="503.5" cy="255.5" r="2.5" fill="#4B4B4B"/>
<circle cx="565.5" cy="255.5" r="2.5" fill="#4B4B4B"/>
<circle cx="627.5" cy="255.5" r="2.5" fill="#4B4B4B"/>
<circle cx="689.5" cy="255.5" r="2.5" fill="#4B4B4B"/>
<circle cx="751.5" cy="255.5" r="2.5" fill="#4B4B4B"/>
<circle cx="813.5" cy="255.5" r="2.5" fill="#4B4B4B"/>
<circle cx="875.5" cy="255.5" r="2.5" fill="#4B4B4B"/>
<circle cx="937.5" cy="255.5" r="2.5" fill="#4B4B4B"/>
<circle cx="999.5" cy="255.5" r="2.5" fill="#4B4B4B"/>
<circle cx="1061.5" cy="255.5" r="2.5" fill="#4B4B4B"/>
<circle cx="1123.5" cy="255.5" r="2.5" fill="#4B4B4B"/>
<circle cx="69.5" cy="317.5" r="2.5" fill="#4B4B4B"/>
<circle cx="131.5" cy="317.5" r="2.5" fill="#4B4B4B"/>
<circle cx="193.5" cy="317.5" r="2.5" fill="#4B4B4B"/>
<circle cx="255.5" cy="317.5" r="2.5" fill="#4B4B4B"/>
<circle cx="317.5" cy="317.5" r="2.5" fill="#4B4B4B"/>
<circle cx="379.5" cy="317.5" r="2.5" fill="#4B4B4B"/>
<circle cx="441.5" cy="317.5" r="2.5" fill="#4B4B4B"/>
<circle cx="503.5" cy="317.5" r="2.5" fill="#4B4B4B"/>
<circle cx="565.5" cy="317.5" r="2.5" fill="#4B4B4B"/>
<circle cx="627.5" cy="317.5" r="2.5" fill="#4B4B4B"/>
<circle cx="689.5" cy="317.5" r="2.5" fill="#4B4B4B"/>
<circle cx="751.5" cy="317.5" r="2.5" fill="#4B4B4B"/>
<circle cx="813.5" cy="317.5" r="2.5" fill="#4B4B4B"/>
<circle cx="875.5" cy="317.5" r="2.5" fill="#4B4B4B"/>
<circle cx="937.5" cy="317.5" r="2.5" fill="#4B4B4B"/>
<circle cx="999.5" cy="317.5" r="2.5" fill="#4B4B4B"/>
<circle cx="1061.5" cy="317.5" r="2.5" fill="#4B4B4B"/>
<circle cx="1123.5" cy="317.5" r="2.5" fill="#4B4B4B"/>
<circle cx="69.5" cy="379.5" r="2.5" fill="#4B4B4B"/>
<circle cx="131.5" cy="379.5" r="2.5" fill="#4B4B4B"/>
<circle cx="193.5" cy="379.5" r="2.5" fill="#4B4B4B"/>
<circle cx="255.5" cy="379.5" r="2.5" fill="#4B4B4B"/>
<circle cx="317.5" cy="379.5" r="2.5" fill="#4B4B4B"/>
<circle cx="379.5" cy="379.5" r="2.5" fill="#4B4B4B"/>
<circle cx="441.5" cy="379.5" r="2.5" fill="#4B4B4B"/>
<circle cx="503.5" cy="379.5" r="2.5" fill="#4B4B4B"/>
<circle cx="565.5" cy="379.5" r="2.5" fill="#4B4B4B"/>
<circle cx="627.5" cy="379.5" r="2.5" fill="#4B4B4B"/>
<circle cx="689.5" cy="379.5" r="2.5" fill="#4B4B4B"/>
<circle cx="751.5" cy="379.5" r="2.5" fill="#4B4B4B"/>
<circle cx="813.5" cy="379.5" r="2.5" fill="#4B4B4B"/>
<circle cx="875.5" cy="379.5" r="2.5" fill="#4B4B4B"/>
<circle cx="937.5" cy="379.5" r="2.5" fill="#4B4B4B"/>
<circle cx="999.5" cy="379.5" r="2.5" fill="#4B4B4B"/>
<circle cx="1061.5" cy="379.5" r="2.5" fill="#4B4B4B"/>
<circle cx="1123.5" cy="379.5" r="2.5" fill="#4B4B4B"/>
<circle cx="69.5" cy="441.5" r="2.5" fill="#4B4B4B"/>
<circle cx="131.5" cy="441.5" r="2.5" fill="#4B4B4B"/>
<circle cx="193.5" cy="441.5" r="2.5" fill="#4B4B4B"/>
<circle cx="255.5" cy="441.5" r="2.5" fill="#4B4B4B"/>
<circle cx="317.5" cy="441.5" r="2.5" fill="#4B4B4B"/>
<circle cx="379.5" cy="441.5" r="2.5" fill="#4B4B4B"/>
<circle cx="441.5" cy="441.5" r="2.5" fill="#4B4B4B"/>
<circle cx="503.5" cy="441.5" r="2.5" fill="#4B4B4B"/>
<circle cx="565.5" cy="441.5" r="2.5" fill="#4B4B4B"/>
<circle cx="627.5" cy="441.5" r="2.5" fill="#4B4B4B"/>
<circle cx="689.5" cy="441.5" r="2.5" fill="#4B4B4B"/>
<circle cx="751.5" cy="441.5" r="2.5" fill="#4B4B4B"/>
<circle cx="813.5" cy="441.5" r="2.5" fill="#4B4B4B"/>
<circle cx="875.5" cy="441.5" r="2.5" fill="#4B4B4B"/>
<circle cx="937.5" cy="441.5" r="2.5" fill="#4B4B4B"/>
<circle cx="999.5" cy="441.5" r="2.5" fill="#4B4B4B"/>
<circle cx="1061.5" cy="441.5" r="2.5" fill="#4B4B4B"/>
<circle cx="1123.5" cy="441.5" r="2.5" fill="#4B4B4B"/>
<circle cx="69.5" cy="503.5" r="2.5" fill="#4B4B4B"/>
<circle cx="131.5" cy="503.5" r="2.5" fill="#4B4B4B"/>
<circle cx="193.5" cy="503.5" r="2.5" fill="#4B4B4B"/>
<circle cx="255.5" cy="503.5" r="2.5" fill="#4B4B4B"/>
<circle cx="317.5" cy="503.5" r="2.5" fill="#4B4B4B"/>
<circle cx="379.5" cy="503.5" r="2.5" fill="#4B4B4B"/>
<circle cx="441.5" cy="503.5" r="2.5" fill="#4B4B4B"/>
<circle cx="503.5" cy="503.5" r="2.5" fill="#4B4B4B"/>
<circle cx="565.5" cy="503.5" r="2.5" fill="#4B4B4B"/>
<circle cx="627.5" cy="503.5" r="2.5" fill="#4B4B4B"/>
<circle cx="689.5" cy="503.5" r="2.5" fill="#4B4B4B"/>
<circle cx="751.5" cy="503.5" r="2.5" fill="#4B4B4B"/>
<circle cx="813.5" cy="503.5" r="2.5" fill="#4B4B4B"/>
<circle cx="875.5" cy="503.5" r="2.5" fill="#4B4B4B"/>
<circle cx="937.5" cy="503.5" r="2.5" fill="#4B4B4B"/>
<circle cx="999.5" cy="503.5" r="2.5" fill="#4B4B4B"/>
<circle cx="1061.5" cy="503.5" r="2.5" fill="#4B4B4B"/>
<circle cx="1123.5" cy="503.5" r="2.5" fill="#4B4B4B"/>
<circle cx="69.5" cy="565.5" r="2.5" fill="#4B4B4B"/>
<circle cx="131.5" cy="565.5" r="2.5" fill="#4B4B4B"/>
<circle cx="193.5" cy="565.5" r="2.5" fill="#4B4B4B"/>
<circle cx="255.5" cy="565.5" r="2.5" fill="#4B4B4B"/>
<circle cx="317.5" cy="565.5" r="2.5" fill="#4B4B4B"/>
<circle cx="379.5" cy="565.5" r="2.5" fill="#4B4B4B"/>
<circle cx="441.5" cy="565.5" r="2.5" fill="#4B4B4B"/>
<circle cx="503.5" cy="565.5" r="2.5" fill="#4B4B4B"/>
<circle cx="565.5" cy="565.5" r="2.5" fill="#4B4B4B"/>
<circle cx="627.5" cy="565.5" r="2.5" fill="#4B4B4B"/>
<circle cx="689.5" cy="565.5" r="2.5" fill="#4B4B4B"/>
<circle cx="751.5" cy="565.5" r="2.5" fill="#4B4B4B"/>
<circle cx="813.5" cy="565.5" r="2.5" fill="#4B4B4B"/>
<circle cx="875.5" cy="565.5" r="2.5" fill="#4B4B4B"/>
<circle cx="937.5" cy="565.5" r="2.5" fill="#4B4B4B"/>
<circle cx="999.5" cy="565.5" r="2.5" fill="#4B4B4B"/>
<circle cx="1061.5" cy="565.5" r="2.5" fill="#4B4B4B"/>
<circle cx="1123.5" cy="565.5" r="2.5" fill="#4B4B4B"/>
<rect x="57" y="537" width="340" height="57" rx="28.5" fill="#435ACF"/>
<path d="M134.837 561.333L127.362 566.083C127.104 566.245 126.807 566.33 126.503 566.33C126.2 566.33 125.902 566.245 125.645 566.083L118.17 561.333M119.837 558.833H133.17C134.09 558.833 134.837 559.58 134.837 560.5V570.5C134.837 571.421 134.09 572.167 133.17 572.167H119.837C118.916 572.167 118.17 571.421 118.17 570.5V560.5C118.17 559.58 118.916 558.833 119.837 558.833Z" stroke="white" stroke-width="1.27" stroke-linecap="round" stroke-linejoin="round"/>
<path d="M148.471 572.5V557.955H150.232V570.938H156.994V572.5H148.471ZM169.667 557.955H171.428V567.585C171.428 568.58 171.194 569.467 170.725 570.249C170.261 571.025 169.605 571.638 168.757 572.088C167.91 572.533 166.916 572.756 165.775 572.756C164.633 572.756 163.639 572.533 162.792 572.088C161.944 571.638 161.286 571.025 160.817 570.249C160.353 569.467 160.121 568.58 160.121 567.585V557.955H161.882V567.443C161.882 568.153 162.039 568.786 162.351 569.339C162.664 569.889 163.109 570.322 163.686 570.639C164.269 570.952 164.965 571.108 165.775 571.108C166.584 571.108 167.28 570.952 167.863 570.639C168.445 570.322 168.89 569.889 169.198 569.339C169.51 568.786 169.667 568.153 169.667 567.443V557.955ZM177.107 557.955V572.5H175.345V557.955H177.107ZM188.993 561.591C188.908 560.871 188.562 560.312 187.956 559.915C187.35 559.517 186.606 559.318 185.726 559.318C185.082 559.318 184.518 559.422 184.035 559.631C183.557 559.839 183.183 560.125 182.913 560.49C182.648 560.855 182.516 561.269 182.516 561.733C182.516 562.121 182.608 562.455 182.793 562.734C182.982 563.009 183.223 563.239 183.517 563.423C183.811 563.603 184.118 563.752 184.44 563.871C184.762 563.984 185.058 564.077 185.328 564.148L186.805 564.545C187.184 564.645 187.606 564.782 188.07 564.957C188.538 565.133 188.986 565.372 189.412 565.675C189.843 565.973 190.198 566.357 190.477 566.825C190.757 567.294 190.896 567.869 190.896 568.551C190.896 569.337 190.69 570.047 190.278 570.682C189.871 571.316 189.275 571.821 188.489 572.195C187.707 572.569 186.758 572.756 185.641 572.756C184.599 572.756 183.697 572.588 182.935 572.251C182.177 571.915 181.58 571.446 181.145 570.845C180.714 570.244 180.47 569.545 180.413 568.75H182.231C182.279 569.299 182.464 569.754 182.785 570.114C183.112 570.469 183.524 570.734 184.021 570.909C184.523 571.08 185.063 571.165 185.641 571.165C186.313 571.165 186.917 571.056 187.452 570.838C187.987 570.616 188.41 570.308 188.723 569.915C189.035 569.517 189.192 569.053 189.192 568.523C189.192 568.04 189.057 567.647 188.787 567.344C188.517 567.041 188.162 566.795 187.722 566.605C187.281 566.416 186.805 566.25 186.294 566.108L184.504 565.597C183.368 565.27 182.468 564.804 181.805 564.197C181.142 563.591 180.811 562.798 180.811 561.818C180.811 561.004 181.031 560.294 181.472 559.688C181.917 559.077 182.513 558.603 183.261 558.267C184.014 557.926 184.855 557.756 185.783 557.756C186.72 557.756 187.553 557.924 188.283 558.26C189.012 558.591 189.589 559.046 190.016 559.624C190.446 560.201 190.674 560.857 190.697 561.591H188.993ZM202.346 574.205C200.897 574.205 199.616 574.006 198.503 573.608C197.391 573.215 196.455 572.635 195.698 571.868C194.94 571.101 194.367 570.161 193.979 569.048C193.591 567.936 193.397 566.662 193.397 565.227C193.397 563.84 193.593 562.599 193.986 561.506C194.384 560.412 194.959 559.484 195.712 558.722C196.47 557.955 197.388 557.37 198.468 556.967C199.552 556.565 200.778 556.364 202.147 556.364C203.477 556.364 204.642 556.581 205.641 557.017C206.645 557.448 207.483 558.033 208.155 558.771C208.832 559.505 209.339 560.331 209.675 561.25C210.016 562.169 210.187 563.116 210.187 564.091C210.187 564.777 210.153 565.473 210.087 566.179C210.021 566.884 209.881 567.533 209.668 568.125C209.455 568.712 209.126 569.186 208.681 569.545C208.241 569.905 207.644 570.085 206.891 570.085C206.56 570.085 206.195 570.033 205.797 569.929C205.4 569.825 205.047 569.652 204.739 569.411C204.431 569.169 204.249 568.845 204.192 568.438H204.107C203.993 568.712 203.818 568.973 203.581 569.219C203.349 569.465 203.044 569.661 202.665 569.808C202.291 569.955 201.834 570.019 201.294 570C200.679 569.976 200.137 569.839 199.668 569.588C199.199 569.332 198.806 568.987 198.489 568.551C198.177 568.111 197.94 567.602 197.779 567.024C197.623 566.442 197.544 565.814 197.544 565.142C197.544 564.503 197.639 563.918 197.829 563.388C198.018 562.857 198.281 562.393 198.617 561.996C198.958 561.598 199.356 561.281 199.81 561.044C200.269 560.803 200.764 560.653 201.294 560.597C201.768 560.549 202.199 560.571 202.587 560.661C202.975 560.746 203.295 560.876 203.546 561.051C203.797 561.222 203.955 561.411 204.022 561.619H204.107V560.824H205.613V567.244C205.613 567.642 205.724 567.992 205.946 568.295C206.169 568.598 206.493 568.75 206.919 568.75C207.402 568.75 207.772 568.584 208.027 568.253C208.288 567.921 208.465 567.41 208.56 566.719C208.66 566.027 208.709 565.142 208.709 564.062C208.709 563.428 208.622 562.803 208.446 562.188C208.276 561.567 208.016 560.987 207.665 560.447C207.32 559.908 206.882 559.432 206.351 559.02C205.821 558.608 205.198 558.286 204.483 558.054C203.773 557.817 202.966 557.699 202.062 557.699C200.949 557.699 199.952 557.872 199.071 558.217C198.196 558.558 197.45 559.058 196.834 559.716C196.223 560.369 195.757 561.165 195.435 562.102C195.118 563.035 194.959 564.096 194.959 565.284C194.959 566.491 195.118 567.564 195.435 568.501C195.757 569.439 196.231 570.23 196.856 570.874C197.485 571.518 198.264 572.008 199.192 572.344C200.12 572.675 201.19 572.841 202.402 572.841C202.923 572.841 203.437 572.791 203.944 572.692C204.45 572.592 204.898 572.483 205.286 572.365C205.674 572.247 205.954 572.159 206.124 572.102L206.522 573.409C206.228 573.532 205.845 573.655 205.371 573.778C204.902 573.902 204.401 574.003 203.866 574.084C203.335 574.164 202.829 574.205 202.346 574.205ZM201.522 568.551C202.156 568.551 202.67 568.423 203.063 568.168C203.456 567.912 203.742 567.526 203.922 567.01C204.102 566.494 204.192 565.843 204.192 565.057C204.192 564.261 204.093 563.641 203.894 563.196C203.695 562.751 203.401 562.438 203.013 562.259C202.625 562.079 202.147 561.989 201.579 561.989C201.039 561.989 200.577 562.131 200.194 562.415C199.815 562.694 199.524 563.068 199.32 563.537C199.121 564.001 199.022 564.508 199.022 565.057C199.022 565.663 199.102 566.233 199.263 566.768C199.424 567.299 199.687 567.73 200.052 568.061C200.416 568.388 200.906 568.551 201.522 568.551ZM222.868 557.955H224.63V567.585C224.63 568.58 224.395 569.467 223.926 570.249C223.462 571.025 222.807 571.638 221.959 572.088C221.112 572.533 220.117 572.756 218.976 572.756C217.835 572.756 216.841 572.533 215.993 572.088C215.146 571.638 214.487 571.025 214.019 570.249C213.555 569.467 213.323 568.58 213.323 567.585V557.955H215.084V567.443C215.084 568.153 215.24 568.786 215.553 569.339C215.865 569.889 216.31 570.322 216.888 570.639C217.47 570.952 218.166 571.108 218.976 571.108C219.786 571.108 220.482 570.952 221.064 570.639C221.647 570.322 222.092 569.889 222.399 569.339C222.712 568.786 222.868 568.153 222.868 567.443V557.955ZM228.547 572.5V557.955H233.462C234.598 557.955 235.531 558.149 236.26 558.537C236.989 558.92 237.529 559.448 237.879 560.121C238.23 560.793 238.405 561.558 238.405 562.415C238.405 563.272 238.23 564.032 237.879 564.695C237.529 565.357 236.992 565.878 236.267 566.257C235.543 566.631 234.617 566.818 233.49 566.818H229.513V565.227H233.433C234.21 565.227 234.835 565.114 235.308 564.886C235.786 564.659 236.132 564.337 236.345 563.92C236.563 563.499 236.672 562.997 236.672 562.415C236.672 561.832 236.563 561.323 236.345 560.888C236.127 560.452 235.779 560.116 235.301 559.879C234.823 559.638 234.191 559.517 233.405 559.517H230.308V572.5H228.547ZM235.394 565.966L238.973 572.5H236.928L233.405 565.966H235.394ZM241.74 572.5V557.955H246.655C247.791 557.955 248.724 558.149 249.453 558.537C250.182 558.92 250.722 559.448 251.072 560.121C251.423 560.793 251.598 561.558 251.598 562.415C251.598 563.272 251.423 564.032 251.072 564.695C250.722 565.357 250.184 565.878 249.46 566.257C248.736 566.631 247.81 566.818 246.683 566.818H242.706V565.227H246.626C247.403 565.227 248.028 565.114 248.501 564.886C248.979 564.659 249.325 564.337 249.538 563.92C249.756 563.499 249.865 562.997 249.865 562.415C249.865 561.832 249.756 561.323 249.538 560.888C249.32 560.452 248.972 560.116 248.494 559.879C248.016 559.638 247.384 559.517 246.598 559.517H243.501V572.5H241.74ZM248.586 565.966L252.166 572.5H250.121L246.598 565.966H248.586ZM264.478 557.955H266.24V567.585C266.24 568.58 266.005 569.467 265.537 570.249C265.073 571.025 264.417 571.638 263.569 572.088C262.722 572.533 261.727 572.756 260.586 572.756C259.445 572.756 258.451 572.533 257.603 572.088C256.756 571.638 256.098 571.025 255.629 570.249C255.165 569.467 254.933 568.58 254.933 567.585V557.955H256.694V567.443C256.694 568.153 256.85 568.786 257.163 569.339C257.475 569.889 257.921 570.322 258.498 570.639C259.081 570.952 259.777 571.108 260.586 571.108C261.396 571.108 262.092 570.952 262.674 570.639C263.257 570.322 263.702 569.889 264.01 569.339C264.322 568.786 264.478 568.153 264.478 567.443V557.955ZM269.362 559.517V557.955H280.271V559.517H275.697V572.5H273.935V559.517H269.362ZM285.15 557.955V572.5H283.389V557.955H285.15ZM289.679 572.5H287.832L293.173 557.955H294.991L300.332 572.5H298.485L294.139 560.256H294.025L289.679 572.5ZM290.36 566.818H297.804V568.381H290.36V566.818ZM303.992 572.614C303.642 572.614 303.341 572.488 303.09 572.237C302.839 571.986 302.714 571.686 302.714 571.335C302.714 570.985 302.839 570.684 303.09 570.433C303.341 570.182 303.642 570.057 303.992 570.057C304.342 570.057 304.643 570.182 304.894 570.433C305.145 570.684 305.27 570.985 305.27 571.335C305.27 571.567 305.211 571.78 305.093 571.974C304.979 572.169 304.825 572.325 304.631 572.443C304.442 572.557 304.229 572.614 303.992 572.614ZM308.905 557.955H311.008L315.951 570.028H316.121L321.065 557.955H323.167V572.5H321.519V561.449H321.377L316.832 572.5H315.241L310.695 561.449H310.553V572.5H308.905V557.955ZM327.098 572.5V557.955H335.877V559.517H328.86V564.432H335.422V565.994H328.86V570.938H335.991V572.5H327.098Z" fill="white"/>
<rect x="669.5" y="534.5" width="473" height="56" rx="28" fill="white"/>
<rect x="669.5" y="534.5" width="473" height="56" rx="28" stroke="#DFDFDF"/>
<path d="M733.797 569.5V554.955H742.575V556.517H735.558V561.432H742.12V562.994H735.558V567.938H742.689V569.5H733.797ZM746.602 554.955L750.352 561.006H750.466L754.216 554.955H756.289L751.716 562.227L756.289 569.5H754.216L750.466 563.562H750.352L746.602 569.5H744.528L749.216 562.227L744.528 554.955H746.602ZM770.052 559.5H768.29C768.186 558.993 768.004 558.548 767.744 558.165C767.488 557.781 767.175 557.459 766.806 557.199C766.442 556.934 766.037 556.735 765.592 556.602C765.147 556.47 764.683 556.403 764.2 556.403C763.319 556.403 762.521 556.626 761.806 557.071C761.096 557.516 760.53 558.172 760.109 559.038C759.692 559.905 759.484 560.968 759.484 562.227C759.484 563.487 759.692 564.55 760.109 565.416C760.53 566.283 761.096 566.938 761.806 567.384C762.521 567.829 763.319 568.051 764.2 568.051C764.683 568.051 765.147 567.985 765.592 567.852C766.037 567.72 766.442 567.523 766.806 567.263C767.175 566.998 767.488 566.673 767.744 566.29C768.004 565.902 768.186 565.456 768.29 564.955H770.052C769.919 565.698 769.678 566.363 769.327 566.95C768.977 567.537 768.541 568.037 768.021 568.449C767.5 568.856 766.915 569.166 766.266 569.379C765.622 569.592 764.933 569.699 764.2 569.699C762.959 569.699 761.856 569.396 760.89 568.79C759.924 568.184 759.164 567.322 758.61 566.205C758.056 565.087 757.779 563.761 757.779 562.227C757.779 560.693 758.056 559.367 758.61 558.25C759.164 557.133 759.924 556.271 760.89 555.665C761.856 555.059 762.959 554.756 764.2 554.756C764.933 554.756 765.622 554.862 766.266 555.075C766.915 555.288 767.5 555.601 768.021 556.013C768.541 556.42 768.977 556.917 769.327 557.504C769.678 558.087 769.919 558.752 770.052 559.5ZM772.898 569.5V554.955H781.676V556.517H774.659V561.432H781.222V562.994H774.659V567.938H781.79V569.5H772.898ZM784.851 569.5V554.955H786.613V567.938H793.374V569.5H784.851ZM796.101 569.5V554.955H797.863V567.938H804.624V569.5H796.101ZM807.351 569.5V554.955H816.13V556.517H809.113V561.432H815.675V562.994H809.113V567.938H816.243V569.5H807.351ZM830.838 554.955V569.5H829.134L821.208 558.08H821.066V569.5H819.304V554.955H821.009L828.963 566.403H829.105V554.955H830.838ZM846.067 559.5H844.306C844.202 558.993 844.02 558.548 843.759 558.165C843.504 557.781 843.191 557.459 842.822 557.199C842.457 556.934 842.052 556.735 841.607 556.602C841.162 556.47 840.698 556.403 840.215 556.403C839.335 556.403 838.537 556.626 837.822 557.071C837.112 557.516 836.546 558.172 836.124 559.038C835.708 559.905 835.499 560.968 835.499 562.227C835.499 563.487 835.708 564.55 836.124 565.416C836.546 566.283 837.112 566.938 837.822 567.384C838.537 567.829 839.335 568.051 840.215 568.051C840.698 568.051 841.162 567.985 841.607 567.852C842.052 567.72 842.457 567.523 842.822 567.263C843.191 566.998 843.504 566.673 843.759 566.29C844.02 565.902 844.202 565.456 844.306 564.955H846.067C845.935 565.698 845.693 566.363 845.343 566.95C844.993 567.537 844.557 568.037 844.036 568.449C843.515 568.856 842.931 569.166 842.282 569.379C841.638 569.592 840.949 569.699 840.215 569.699C838.975 569.699 837.871 569.396 836.906 568.79C835.94 568.184 835.18 567.322 834.626 566.205C834.072 565.087 833.795 563.761 833.795 562.227C833.795 560.693 834.072 559.367 834.626 558.25C835.18 557.133 835.94 556.271 836.906 555.665C837.871 555.059 838.975 554.756 840.215 554.756C840.949 554.756 841.638 554.862 842.282 555.075C842.931 555.288 843.515 555.601 844.036 556.013C844.557 556.42 844.993 556.917 845.343 557.504C845.693 558.087 845.935 558.752 846.067 559.5ZM848.914 569.5V554.955H857.692V556.517H850.675V561.432H857.238V562.994H850.675V567.938H857.806V569.5H848.914ZM874.446 558.591C874.361 557.871 874.016 557.312 873.409 556.915C872.803 556.517 872.06 556.318 871.179 556.318C870.535 556.318 869.972 556.422 869.489 556.631C869.011 556.839 868.637 557.125 868.367 557.49C868.102 557.855 867.969 558.269 867.969 558.733C867.969 559.121 868.061 559.455 868.246 559.734C868.435 560.009 868.677 560.239 868.971 560.423C869.264 560.603 869.572 560.752 869.894 560.871C870.216 560.984 870.512 561.077 870.782 561.148L872.259 561.545C872.638 561.645 873.059 561.782 873.523 561.957C873.992 562.133 874.439 562.372 874.865 562.675C875.296 562.973 875.651 563.357 875.931 563.825C876.21 564.294 876.35 564.869 876.35 565.551C876.35 566.337 876.144 567.047 875.732 567.682C875.325 568.316 874.728 568.821 873.942 569.195C873.161 569.569 872.212 569.756 871.094 569.756C870.052 569.756 869.15 569.588 868.388 569.251C867.631 568.915 867.034 568.446 866.598 567.845C866.167 567.244 865.924 566.545 865.867 565.75H867.685C867.732 566.299 867.917 566.754 868.239 567.114C868.566 567.469 868.978 567.734 869.475 567.909C869.977 568.08 870.516 568.165 871.094 568.165C871.766 568.165 872.37 568.056 872.905 567.838C873.44 567.616 873.864 567.308 874.176 566.915C874.489 566.517 874.645 566.053 874.645 565.523C874.645 565.04 874.51 564.647 874.24 564.344C873.971 564.041 873.615 563.795 873.175 563.605C872.735 563.416 872.259 563.25 871.748 563.108L869.958 562.597C868.821 562.27 867.922 561.804 867.259 561.197C866.596 560.591 866.265 559.798 866.265 558.818C866.265 558.004 866.485 557.294 866.925 556.688C867.37 556.077 867.967 555.603 868.715 555.267C869.468 554.926 870.308 554.756 871.236 554.756C872.174 554.756 873.007 554.924 873.736 555.26C874.465 555.591 875.043 556.046 875.469 556.624C875.9 557.201 876.127 557.857 876.151 558.591H874.446ZM878.45 556.517V554.955H889.359V556.517H884.786V569.5H883.024V556.517H878.45ZM890.975 569.5H889.129L894.469 554.955H896.288L901.629 569.5H899.782L895.435 557.256H895.322L890.975 569.5ZM891.657 563.818H899.1V565.381H891.657V563.818ZM903.894 569.5V554.955H908.809C909.945 554.955 910.878 555.149 911.607 555.537C912.336 555.92 912.876 556.448 913.227 557.121C913.577 557.793 913.752 558.558 913.752 559.415C913.752 560.272 913.577 561.032 913.227 561.695C912.876 562.357 912.339 562.878 911.614 563.257C910.89 563.631 909.964 563.818 908.837 563.818H904.86V562.227H908.781C909.557 562.227 910.182 562.114 910.656 561.886C911.134 561.659 911.479 561.337 911.692 560.92C911.91 560.499 912.019 559.997 912.019 559.415C912.019 558.832 911.91 558.323 911.692 557.888C911.475 557.452 911.127 557.116 910.648 556.879C910.17 556.638 909.538 556.517 908.752 556.517H905.656V569.5H903.894ZM910.741 562.966L914.32 569.5H912.275L908.752 562.966H910.741ZM915.892 556.517V554.955H926.801V556.517H922.227V569.5H920.466V556.517H915.892ZM937.474 558.591C937.388 557.871 937.043 557.312 936.437 556.915C935.831 556.517 935.087 556.318 934.207 556.318C933.563 556.318 932.999 556.422 932.516 556.631C932.038 556.839 931.664 557.125 931.394 557.49C931.129 557.855 930.996 558.269 930.996 558.733C930.996 559.121 931.089 559.455 931.273 559.734C931.463 560.009 931.704 560.239 931.998 560.423C932.291 560.603 932.599 560.752 932.921 560.871C933.243 560.984 933.539 561.077 933.809 561.148L935.286 561.545C935.665 561.645 936.086 561.782 936.55 561.957C937.019 562.133 937.467 562.372 937.893 562.675C938.324 562.973 938.679 563.357 938.958 563.825C939.237 564.294 939.377 564.869 939.377 565.551C939.377 566.337 939.171 567.047 938.759 567.682C938.352 568.316 937.755 568.821 936.969 569.195C936.188 569.569 935.239 569.756 934.121 569.756C933.08 569.756 932.178 569.588 931.415 569.251C930.658 568.915 930.061 568.446 929.626 567.845C929.195 567.244 928.951 566.545 928.894 565.75H930.712C930.76 566.299 930.944 566.754 931.266 567.114C931.593 567.469 932.005 567.734 932.502 567.909C933.004 568.08 933.544 568.165 934.121 568.165C934.794 568.165 935.397 568.056 935.933 567.838C936.468 567.616 936.891 567.308 937.204 566.915C937.516 566.517 937.673 566.053 937.673 565.523C937.673 565.04 937.538 564.647 937.268 564.344C936.998 564.041 936.643 563.795 936.202 563.605C935.762 563.416 935.286 563.25 934.775 563.108L932.985 562.597C931.849 562.27 930.949 561.804 930.286 561.197C929.623 560.591 929.292 559.798 929.292 558.818C929.292 558.004 929.512 557.294 929.952 556.688C930.397 556.077 930.994 555.603 931.742 555.267C932.495 554.926 933.335 554.756 934.263 554.756C935.201 554.756 936.034 554.924 936.763 555.26C937.493 555.591 938.07 556.046 938.496 556.624C938.927 557.201 939.155 557.857 939.178 558.591H937.474ZM950.54 569.5L946.563 554.955H948.353L951.392 566.801H951.534L954.631 554.955H956.62L959.716 566.801H959.858L962.898 554.955H964.688L960.711 569.5H958.892L955.682 557.909H955.569L952.358 569.5H950.54ZM968.644 554.955V569.5H966.882V554.955H968.644ZM971.38 556.517V554.955H982.289V556.517H977.715V569.5H975.954V556.517H971.38ZM985.007 569.5V554.955H986.769V561.432H994.525V554.955H996.286V569.5H994.525V562.994H986.769V569.5H985.007ZM1005.44 569.5V554.955H1014.22V556.517H1007.2V561.432H1013.76V562.994H1007.2V567.938H1014.33V569.5H1005.44ZM1017.39 569.5V554.955H1026.11V556.517H1019.15V561.432H1025.46V562.994H1019.15V569.5H1017.39ZM1029.13 569.5V554.955H1037.85V556.517H1030.89V561.432H1037.2V562.994H1030.89V569.5H1029.13ZM1053.14 562.227C1053.14 563.761 1052.86 565.087 1052.31 566.205C1051.75 567.322 1050.99 568.184 1050.03 568.79C1049.06 569.396 1047.96 569.699 1046.72 569.699C1045.48 569.699 1044.38 569.396 1043.41 568.79C1042.44 568.184 1041.68 567.322 1041.13 566.205C1040.58 565.087 1040.3 563.761 1040.3 562.227C1040.3 560.693 1040.58 559.367 1041.13 558.25C1041.68 557.133 1042.44 556.271 1043.41 555.665C1044.38 555.059 1045.48 554.756 1046.72 554.756C1047.96 554.756 1049.06 555.059 1050.03 555.665C1050.99 556.271 1051.75 557.133 1052.31 558.25C1052.86 559.367 1053.14 560.693 1053.14 562.227ZM1051.44 562.227C1051.44 560.968 1051.22 559.905 1050.8 559.038C1050.39 558.172 1049.82 557.516 1049.11 557.071C1048.4 556.626 1047.6 556.403 1046.72 556.403C1045.84 556.403 1045.04 556.626 1044.33 557.071C1043.62 557.516 1043.05 558.172 1042.63 559.038C1042.21 559.905 1042 560.968 1042 562.227C1042 563.487 1042.21 564.55 1042.63 565.416C1043.05 566.283 1043.62 566.938 1044.33 567.384C1045.04 567.829 1045.84 568.051 1046.72 568.051C1047.6 568.051 1048.4 567.829 1049.11 567.384C1049.82 566.938 1050.39 566.283 1050.8 565.416C1051.22 564.55 1051.44 563.487 1051.44 562.227ZM1056.1 569.5V554.955H1061.02C1062.15 554.955 1063.09 555.149 1063.81 555.537C1064.54 555.92 1065.08 556.448 1065.43 557.121C1065.78 557.793 1065.96 558.558 1065.96 559.415C1065.96 560.272 1065.78 561.032 1065.43 561.695C1065.08 562.357 1064.55 562.878 1063.82 563.257C1063.1 563.631 1062.17 563.818 1061.04 563.818H1057.07V562.227H1060.99C1061.76 562.227 1062.39 562.114 1062.86 561.886C1063.34 561.659 1063.69 561.337 1063.9 560.92C1064.12 560.499 1064.23 559.997 1064.23 559.415C1064.23 558.832 1064.12 558.323 1063.9 557.888C1063.68 557.452 1063.33 557.116 1062.86 556.879C1062.38 556.638 1061.75 556.517 1060.96 556.517H1057.86V569.5H1056.1ZM1062.95 562.966L1066.53 569.5H1064.48L1060.96 562.966H1062.95ZM1068.1 556.517V554.955H1079.01V556.517H1074.43V569.5H1072.67V556.517H1068.1Z" fill="#0E0E0E"/>
</g>
<defs>
<clipPath id="clip0_2004_2">
<rect width="1200" height="630" fill="white"/>
</clipPath>
</defs>
</svg>
