<svg width="464" height="161" viewBox="0 0 464 161" fill="none" xmlns="http://www.w3.org/2000/svg">
<path d="M276 59.6C277.857 59.6 279.637 58.8687 280.95 57.567C282.263 56.2653 283 54.4997 283 52.6588V17.9529C283 16.112 282.263 14.3465 280.95 13.0448C279.637 11.7431 277.857 11.0118 276 11.0118H248.35C247.179 11.0231 246.024 10.7432 244.991 10.1975C243.958 9.65181 243.079 8.85783 242.435 7.88824L239.6 3.72353C238.963 2.76381 238.095 1.97602 237.075 1.43085C236.055 0.885678 234.914 0.60019 233.755 0.6H220C218.143 0.6 216.363 1.3313 215.05 2.63302C213.737 3.93475 213 5.70026 213 7.54118V52.6588C213 54.4997 213.737 56.2653 215.05 57.567C216.363 58.8687 218.143 59.6 220 59.6H276Z" stroke="white" stroke-width="1.2" stroke-linecap="round" stroke-linejoin="round"/>
<path d="M69.7976 115.482L74.9717 105.759C75.5342 104.673 76.3898 103.756 77.447 103.107C78.5042 102.457 79.7232 102.099 80.9736 102.071H118.089M118.089 102.071C119.143 102.069 120.183 102.302 121.13 102.752C122.077 103.201 122.905 103.856 123.551 104.665C124.198 105.475 124.644 106.417 124.857 107.42C125.071 108.424 125.044 109.461 124.781 110.453L119.469 130.57C119.085 132.017 118.214 133.298 116.995 134.209C115.777 135.121 114.28 135.61 112.743 135.6H62.8988C61.0691 135.6 59.3144 134.893 58.0206 133.636C56.7268 132.378 56 130.673 56 128.894V85.3061C56 83.5277 56.7268 81.822 58.0206 80.5644C59.3144 79.3068 61.0691 78.6003 62.8988 78.6003H76.3514C77.5052 78.5893 78.6434 78.8598 79.6618 79.387C80.6802 79.9142 81.5464 80.6812 82.1809 81.6179L84.9749 85.6414C85.6031 86.5686 86.4582 87.3297 87.4637 87.8564C88.4691 88.3831 89.5933 88.6589 90.7354 88.6591H111.19C113.02 88.6591 114.775 89.3656 116.068 90.6232C117.362 91.8807 118.089 93.5864 118.089 95.3649V102.071Z" stroke="#6942FA" stroke-width="1.19979" stroke-linecap="round" stroke-linejoin="round"/>
<path d="M383.798 115.482L388.972 105.759C389.534 104.673 390.39 103.756 391.447 103.107C392.504 102.457 393.723 102.099 394.974 102.071H432.089M432.089 102.071C433.143 102.069 434.183 102.302 435.13 102.752C436.077 103.201 436.905 103.856 437.551 104.665C438.198 105.475 438.644 106.417 438.857 107.42C439.071 108.424 439.044 109.461 438.781 110.453L433.469 130.57C433.085 132.017 432.214 133.298 430.995 134.209C429.777 135.121 428.28 135.61 426.743 135.6H376.899C375.069 135.6 373.314 134.893 372.021 133.636C370.727 132.378 370 130.673 370 128.894V85.3061C370 83.5277 370.727 81.822 372.021 80.5644C373.314 79.3068 375.069 78.6003 376.899 78.6003H390.351C391.505 78.5893 392.643 78.8598 393.662 79.387C394.68 79.9142 395.546 80.6812 396.181 81.6179L398.975 85.6414C399.603 86.5686 400.458 87.3297 401.464 87.8564C402.469 88.3831 403.593 88.6589 404.735 88.6591H425.19C427.02 88.6591 428.775 89.3656 430.068 90.6232C431.362 91.8807 432.089 93.5864 432.089 95.3649V102.071Z" stroke="#F73871" stroke-width="1.19979" stroke-linecap="round" stroke-linejoin="round"/>
<path d="M402.646 78.9536C402.842 79.1488 403.158 79.1488 403.354 78.9536L406.536 75.7716C406.731 75.5763 406.731 75.2597 406.536 75.0645C406.34 74.8692 406.024 74.8692 405.828 75.0645L403 77.8929L400.172 75.0645C399.976 74.8692 399.66 74.8692 399.464 75.0645C399.269 75.2597 399.269 75.5763 399.464 75.7716L402.646 78.9536ZM283 33.6V34.1H378V33.6V33.1H283V33.6ZM403 58.6H402.5V78.6H403H403.5V58.6H403ZM378 33.6V34.1C391.531 34.1 402.5 45.069 402.5 58.6H403H403.5C403.5 44.5167 392.083 33.1 378 33.1V33.6Z" fill="#909090"/>
<path d="M91.6464 78.9536C91.8417 79.1488 92.1583 79.1488 92.3536 78.9536L95.5355 75.7716C95.7308 75.5763 95.7308 75.2597 95.5355 75.0645C95.3403 74.8692 95.0237 74.8692 94.8284 75.0645L92 77.8929L89.1716 75.0645C88.9763 74.8692 88.6597 74.8692 88.4645 75.0645C88.2692 75.2597 88.2692 75.5763 88.4645 75.7716L91.6464 78.9536ZM213 33.6V33.1H117V33.6V34.1H213V33.6ZM92 58.6H91.5V78.6H92H92.5V58.6H92ZM117 33.6V33.1C102.917 33.1 91.5 44.5167 91.5 58.6H92H92.5C92.5 45.069 103.469 34.1 117 34.1V33.6Z" fill="#909090"/>
<path d="M240.653 37.6682C240.443 37.6682 240.263 37.5929 240.112 37.4423C239.962 37.2918 239.886 37.1114 239.886 36.9011C239.886 36.6909 239.962 36.5105 240.112 36.3599C240.263 36.2094 240.443 36.1341 240.653 36.1341C240.864 36.1341 241.044 36.2094 241.195 36.3599C241.345 36.5105 241.42 36.6909 241.42 36.9011C241.42 37.0403 241.385 37.1682 241.314 37.2847C241.246 37.4011 241.153 37.4949 241.037 37.5659C240.923 37.6341 240.795 37.6682 240.653 37.6682ZM245.867 40.1909C245.381 40.1909 244.964 40.1284 244.614 40.0034C244.265 39.8813 243.974 39.7193 243.741 39.5176C243.511 39.3188 243.327 39.1057 243.191 38.8784L243.992 38.3159C244.083 38.4352 244.198 38.5716 244.337 38.725C244.477 38.8813 244.667 39.0162 244.908 39.1298C245.153 39.2463 245.472 39.3045 245.867 39.3045C246.396 39.3045 246.832 39.1767 247.175 38.921C247.519 38.6653 247.691 38.2648 247.691 37.7193V36.3898H247.606C247.532 36.5091 247.427 36.6568 247.29 36.833C247.157 37.0063 246.964 37.1611 246.711 37.2974C246.461 37.431 246.123 37.4977 245.697 37.4977C245.168 37.4977 244.694 37.3727 244.273 37.1227C243.856 36.8727 243.525 36.5091 243.281 36.0318C243.039 35.5545 242.918 34.975 242.918 34.2932C242.918 33.6227 243.036 33.0389 243.272 32.5418C243.508 32.0418 243.836 31.6554 244.256 31.3827C244.677 31.1071 245.163 30.9693 245.714 30.9693C246.14 30.9693 246.478 31.0403 246.728 31.1824C246.981 31.3216 247.174 31.4807 247.308 31.6597C247.444 31.8358 247.549 31.9807 247.623 32.0943H247.725V31.0545H248.697V37.7875C248.697 38.35 248.569 38.8074 248.313 39.1597C248.06 39.5148 247.719 39.7747 247.29 39.9395C246.864 40.1071 246.39 40.1909 245.867 40.1909ZM245.833 36.5943C246.237 36.5943 246.577 36.502 246.856 36.3173C247.134 36.1327 247.346 35.867 247.491 35.5205C247.636 35.1739 247.708 34.7591 247.708 34.2761C247.708 33.8045 247.637 33.3884 247.495 33.0276C247.353 32.6668 247.143 32.3841 246.864 32.1795C246.586 31.975 246.242 31.8727 245.833 31.8727C245.407 31.8727 245.052 31.9807 244.768 32.1966C244.487 32.4125 244.275 32.7023 244.133 33.0659C243.994 33.4295 243.924 33.833 243.924 34.2761C243.924 34.7307 243.995 35.1327 244.137 35.4821C244.282 35.8287 244.495 36.1014 244.776 36.3003C245.06 36.4963 245.413 36.5943 245.833 36.5943ZM250.538 37.6V31.0545H251.543V37.6H250.538ZM251.049 29.9636C250.853 29.9636 250.684 29.8969 250.542 29.7634C250.403 29.6298 250.333 29.4693 250.333 29.2818C250.333 29.0943 250.403 28.9338 250.542 28.8003C250.684 28.6668 250.853 28.6 251.049 28.6C251.245 28.6 251.413 28.6668 251.552 28.8003C251.694 28.9338 251.765 29.0943 251.765 29.2818C251.765 29.4693 251.694 29.6298 251.552 29.7634C251.413 29.8969 251.245 29.9636 251.049 29.9636ZM256.232 31.0545V31.9068H252.84V31.0545H256.232ZM253.828 29.4864H254.834V35.725C254.834 36.0091 254.875 36.2222 254.958 36.3642C255.043 36.5034 255.151 36.5972 255.282 36.6455C255.415 36.6909 255.556 36.7136 255.703 36.7136C255.814 36.7136 255.905 36.708 255.976 36.6966C256.047 36.6824 256.104 36.671 256.147 36.6625L256.351 37.5659C256.283 37.5915 256.188 37.617 256.066 37.6426C255.944 37.671 255.789 37.6852 255.601 37.6852C255.317 37.6852 255.039 37.6241 254.766 37.502C254.496 37.3798 254.272 37.1938 254.093 36.9438C253.917 36.6938 253.828 36.3784 253.828 35.9977V29.4864Z" fill="white"/>
<path d="M0.860795 157.6V148.873H4.2017C4.83239 148.873 5.35653 148.972 5.77415 149.171C6.1946 149.367 6.50852 149.636 6.71591 149.976C6.92614 150.317 7.03125 150.704 7.03125 151.136C7.03125 151.491 6.96307 151.795 6.8267 152.047C6.69034 152.297 6.5071 152.501 6.27699 152.657C6.04688 152.813 5.78977 152.925 5.50568 152.993V153.079C5.81534 153.096 6.11222 153.191 6.39631 153.364C6.68324 153.535 6.91761 153.776 7.09943 154.089C7.28125 154.401 7.37216 154.779 7.37216 155.222C7.37216 155.674 7.26278 156.08 7.04403 156.441C6.82528 156.799 6.49574 157.082 6.0554 157.289C5.61506 157.496 5.06108 157.6 4.39347 157.6H0.860795ZM2.44176 156.279H4.14205C4.71591 156.279 5.12926 156.17 5.3821 155.951C5.63778 155.729 5.76562 155.445 5.76562 155.099C5.76562 154.84 5.7017 154.607 5.57386 154.4C5.44602 154.189 5.2642 154.025 5.02841 153.905C4.79261 153.783 4.51136 153.722 4.18466 153.722H2.44176V156.279ZM2.44176 152.584H4.00568C4.27841 152.584 4.52415 152.535 4.7429 152.435C4.96165 152.333 5.13352 152.189 5.25852 152.005C5.38636 151.817 5.45028 151.596 5.45028 151.34C5.45028 151.002 5.33097 150.724 5.09233 150.505C4.85653 150.286 4.50568 150.177 4.03977 150.177H2.44176V152.584ZM8.67933 157.6V151.055H10.1751V152.145H10.2433C10.3626 151.768 10.5671 151.476 10.8569 151.272C11.1495 151.064 11.4833 150.961 11.8583 150.961C11.9435 150.961 12.0387 150.965 12.1438 150.974C12.2518 150.979 12.3413 150.989 12.4123 151.003V152.422C12.3469 152.4 12.2433 152.38 12.1012 152.363C11.962 152.343 11.8271 152.333 11.6964 152.333C11.4151 152.333 11.1623 152.394 10.9379 152.516C10.7163 152.636 10.5415 152.802 10.4137 153.015C10.2859 153.228 10.2219 153.474 10.2219 153.752V157.6H8.67933ZM15.2035 157.732C14.7887 157.732 14.4151 157.658 14.0827 157.511C13.7532 157.36 13.4918 157.138 13.2987 156.846C13.1083 156.553 13.0131 156.192 13.0131 155.763C13.0131 155.394 13.0813 155.089 13.2177 154.847C13.354 154.606 13.5401 154.413 13.7759 154.268C14.0117 154.123 14.2773 154.013 14.5728 153.939C14.8711 153.863 15.1793 153.807 15.4975 153.773C15.881 153.734 16.1921 153.698 16.4308 153.667C16.6694 153.633 16.8427 153.582 16.9506 153.513C17.0614 153.442 17.1168 153.333 17.1168 153.185V153.16C17.1168 152.839 17.0217 152.59 16.8313 152.414C16.641 152.238 16.3668 152.15 16.0089 152.15C15.631 152.15 15.3313 152.232 15.1097 152.397C14.891 152.562 14.7433 152.756 14.6665 152.981L13.2262 152.776C13.3398 152.378 13.5273 152.046 13.7887 151.779C14.0501 151.509 14.3697 151.307 14.7475 151.174C15.1254 151.038 15.543 150.969 16.0004 150.969C16.3157 150.969 16.6296 151.006 16.9421 151.08C17.2546 151.154 17.5401 151.276 17.7987 151.447C18.0572 151.614 18.2646 151.843 18.4208 152.133C18.5799 152.422 18.6594 152.785 18.6594 153.219V157.6H17.1765V156.701H17.1254C17.0316 156.883 16.8995 157.053 16.729 157.212C16.5614 157.368 16.3498 157.495 16.0941 157.591C15.8413 157.685 15.5444 157.732 15.2035 157.732ZM15.604 156.599C15.9137 156.599 16.1822 156.538 16.4094 156.415C16.6367 156.29 16.8114 156.126 16.9336 155.921C17.0586 155.716 17.1211 155.493 17.1211 155.252V154.481C17.0728 154.52 16.9904 154.557 16.8739 154.591C16.7603 154.626 16.6325 154.655 16.4904 154.681C16.3484 154.707 16.2077 154.729 16.0685 154.749C15.9293 154.769 15.8086 154.786 15.7063 154.8C15.4762 154.832 15.2702 154.883 15.0884 154.954C14.9066 155.025 14.7631 155.124 14.658 155.252C14.5529 155.377 14.5004 155.539 14.5004 155.738C14.5004 156.022 14.604 156.236 14.8114 156.381C15.0188 156.526 15.283 156.599 15.604 156.599ZM21.7532 153.765V157.6H20.2106V151.055H21.685V152.167H21.7617C21.9123 151.8 22.1523 151.509 22.4819 151.293C22.8143 151.077 23.2248 150.969 23.7134 150.969C24.1651 150.969 24.5586 151.066 24.8938 151.259C25.2319 151.452 25.4933 151.732 25.6779 152.099C25.8654 152.465 25.9577 152.91 25.9549 153.432V157.6H24.4123V153.671C24.4123 153.234 24.2987 152.891 24.0714 152.644C23.8469 152.397 23.5359 152.273 23.1381 152.273C22.8683 152.273 22.6282 152.333 22.418 152.452C22.2106 152.569 22.0472 152.738 21.9279 152.959C21.8114 153.181 21.7532 153.449 21.7532 153.765ZM30.3782 157.728C29.7248 157.728 29.1637 157.584 28.695 157.297C28.229 157.011 27.8697 156.614 27.6168 156.109C27.3668 155.6 27.2418 155.015 27.2418 154.353C27.2418 153.688 27.3697 153.101 27.6254 152.593C27.881 152.082 28.2418 151.684 28.7077 151.4C29.1765 151.113 29.7305 150.969 30.3697 150.969C30.9009 150.969 31.3711 151.067 31.7802 151.263C32.1921 151.457 32.5202 151.731 32.7646 152.086C33.0089 152.438 33.1481 152.85 33.1822 153.322H31.7077C31.6481 153.006 31.506 152.743 31.2816 152.533C31.06 152.32 30.7631 152.214 30.391 152.214C30.0756 152.214 29.7987 152.299 29.56 152.469C29.3214 152.637 29.1353 152.878 29.0018 153.194C28.8711 153.509 28.8058 153.887 28.8058 154.327C28.8058 154.773 28.8711 155.157 29.0018 155.478C29.1325 155.796 29.3157 156.042 29.5515 156.215C29.7901 156.386 30.07 156.471 30.391 156.471C30.6183 156.471 30.8214 156.428 31.0004 156.343C31.1822 156.255 31.3342 156.128 31.4563 155.964C31.5785 155.799 31.6623 155.599 31.7077 155.363H33.1822C33.1452 155.826 33.0089 156.236 32.7731 156.594C32.5373 156.949 32.2163 157.228 31.81 157.43C31.4038 157.628 30.9265 157.728 30.3782 157.728ZM35.9915 153.765V157.6H34.4489V148.873H35.9574V152.167H36.0341C36.1875 151.797 36.4247 151.506 36.7457 151.293C37.0696 151.077 37.4815 150.969 37.9815 150.969C38.4361 150.969 38.8324 151.064 39.1705 151.255C39.5085 151.445 39.7699 151.724 39.9545 152.09C40.142 152.457 40.2358 152.904 40.2358 153.432V157.6H38.6932V153.671C38.6932 153.231 38.5795 152.888 38.3523 152.644C38.1278 152.397 37.8125 152.273 37.4062 152.273C37.1335 152.273 36.8892 152.333 36.6733 152.452C36.4602 152.569 36.2926 152.738 36.1705 152.959C36.0511 153.181 35.9915 153.449 35.9915 153.765ZM42.7585 157.694C42.5 157.694 42.2784 157.603 42.0938 157.421C41.9091 157.239 41.8182 157.018 41.821 156.756C41.8182 156.501 41.9091 156.282 42.0938 156.1C42.2784 155.918 42.5 155.827 42.7585 155.827C43.0085 155.827 43.2259 155.918 43.4105 156.1C43.598 156.282 43.6932 156.501 43.696 156.756C43.6932 156.93 43.6477 157.087 43.5597 157.229C43.4744 157.371 43.3608 157.485 43.2188 157.57C43.0795 157.653 42.9261 157.694 42.7585 157.694ZM42.7585 153.023C42.5 153.023 42.2784 152.932 42.0938 152.751C41.9091 152.566 41.8182 152.344 41.821 152.086C41.8182 151.83 41.9091 151.611 42.0938 151.43C42.2784 151.245 42.5 151.153 42.7585 151.153C43.0085 151.153 43.2259 151.245 43.4105 151.43C43.598 151.611 43.6932 151.83 43.696 152.086C43.6932 152.256 43.6477 152.413 43.5597 152.555C43.4744 152.697 43.3608 152.81 43.2188 152.895C43.0795 152.981 42.9261 153.023 42.7585 153.023ZM50.7177 157.753C50.3029 157.753 49.9265 157.675 49.5884 157.519C49.2504 157.36 48.9819 157.131 48.783 156.833C48.5842 156.532 48.4847 156.168 48.4847 155.742C48.4847 155.367 48.5586 155.063 48.7063 154.83C48.854 154.594 49.0515 154.41 49.2987 154.276C49.5458 154.143 49.8185 154.043 50.1168 153.978C50.418 153.91 50.7205 153.856 51.0245 153.816C51.4222 153.765 51.7447 153.726 51.9918 153.701C52.2418 153.672 52.4237 153.626 52.5373 153.56C52.6538 153.495 52.712 153.381 52.712 153.219V153.185C52.712 152.765 52.5969 152.438 52.3668 152.205C52.1396 151.972 51.7944 151.856 51.3313 151.856C50.8512 151.856 50.4748 151.961 50.2021 152.171C49.9293 152.381 49.7376 152.606 49.6268 152.844L48.6722 152.503C48.8427 152.106 49.07 151.796 49.354 151.574C49.641 151.35 49.9535 151.194 50.2915 151.106C50.6325 151.015 50.9677 150.969 51.2972 150.969C51.5075 150.969 51.7489 150.995 52.0217 151.046C52.2972 151.094 52.5629 151.195 52.8185 151.349C53.0771 151.502 53.2915 151.734 53.462 152.043C53.6325 152.353 53.7177 152.768 53.7177 153.288V157.6H52.712V156.714H52.6609C52.5927 156.856 52.479 157.008 52.32 157.17C52.1609 157.332 51.9492 157.469 51.685 157.583C51.4208 157.697 51.0984 157.753 50.7177 157.753ZM50.8711 156.85C51.2688 156.85 51.604 156.772 51.8768 156.616C52.1523 156.459 52.3597 156.258 52.4989 156.011C52.641 155.763 52.712 155.503 52.712 155.231V154.31C52.6694 154.361 52.5756 154.408 52.4308 154.451C52.2887 154.491 52.1239 154.526 51.9364 154.557C51.7518 154.586 51.5714 154.611 51.3952 154.634C51.2219 154.654 51.0813 154.671 50.9734 154.685C50.712 154.719 50.4677 154.775 50.2404 154.851C50.016 154.925 49.8342 155.038 49.695 155.188C49.5586 155.336 49.4904 155.538 49.4904 155.793C49.4904 156.143 49.6197 156.407 49.8782 156.586C50.1396 156.762 50.4705 156.85 50.8711 156.85ZM55.5533 157.6V151.055H56.5249V152.043H56.593C56.7124 151.719 56.9283 151.457 57.2408 151.255C57.5533 151.053 57.9055 150.952 58.2976 150.952C58.3714 150.952 58.4638 150.954 58.5746 150.957C58.6854 150.959 58.7692 150.964 58.826 150.969V151.992C58.7919 151.984 58.7138 151.971 58.5916 151.954C58.4723 151.934 58.3459 151.924 58.2124 151.924C57.8942 151.924 57.6101 151.991 57.3601 152.124C57.1129 152.255 56.9169 152.437 56.772 152.67C56.63 152.9 56.5589 153.163 56.5589 153.458V157.6H55.5533ZM60.1545 157.6V148.873H61.1602V152.094H61.2454C61.3192 151.981 61.4215 151.836 61.5522 151.66C61.6857 151.481 61.8761 151.322 62.1232 151.182C62.3732 151.04 62.7113 150.969 63.1374 150.969C63.6886 150.969 64.1744 151.107 64.5948 151.383C65.0153 151.658 65.3434 152.049 65.5792 152.555C65.815 153.06 65.9329 153.657 65.9329 154.344C65.9329 155.038 65.815 155.638 65.5792 156.147C65.3434 156.653 65.0167 157.045 64.5991 157.323C64.1815 157.599 63.6999 157.736 63.1545 157.736C62.734 157.736 62.3974 157.667 62.1445 157.528C61.8917 157.386 61.6971 157.225 61.5607 157.046C61.4244 156.864 61.3192 156.714 61.2454 156.594H61.1261V157.6H60.1545ZM61.1431 154.327C61.1431 154.822 61.2156 155.258 61.3604 155.636C61.5053 156.011 61.717 156.305 61.9954 156.518C62.2738 156.728 62.6147 156.833 63.0181 156.833C63.4386 156.833 63.7894 156.722 64.0707 156.501C64.3548 156.276 64.5678 155.975 64.7099 155.597C64.8548 155.216 64.9272 154.793 64.9272 154.327C64.9272 153.867 64.8562 153.452 64.7141 153.083C64.5749 152.711 64.3633 152.417 64.0792 152.201C63.7979 151.982 63.4442 151.873 63.0181 151.873C62.609 151.873 62.2653 151.976 61.9869 152.184C61.7085 152.388 61.4982 152.675 61.3562 153.045C61.2141 153.411 61.1431 153.839 61.1431 154.327ZM67.4712 157.6V151.055H68.4769V157.6H67.4712ZM67.9826 149.964C67.7866 149.964 67.6175 149.897 67.4755 149.763C67.3363 149.63 67.2667 149.469 67.2667 149.282C67.2667 149.094 67.3363 148.934 67.4755 148.8C67.6175 148.667 67.7866 148.6 67.9826 148.6C68.1786 148.6 68.3462 148.667 68.4854 148.8C68.6275 148.934 68.6985 149.094 68.6985 149.282C68.6985 149.469 68.6275 149.63 68.4854 149.763C68.3462 149.897 68.1786 149.964 67.9826 149.964ZM73.1655 151.055V151.907H69.7734V151.055H73.1655ZM70.7621 149.486H71.7678V155.725C71.7678 156.009 71.8089 156.222 71.8913 156.364C71.9766 156.503 72.0845 156.597 72.2152 156.645C72.3487 156.691 72.4893 156.714 72.6371 156.714C72.7479 156.714 72.8388 156.708 72.9098 156.697C72.9808 156.682 73.0376 156.671 73.0803 156.663L73.2848 157.566C73.2166 157.591 73.1214 157.617 72.9993 157.643C72.8771 157.671 72.7223 157.685 72.5348 157.685C72.2507 157.685 71.9723 157.624 71.6996 157.502C71.4297 157.38 71.2053 157.194 71.0263 156.944C70.8501 156.694 70.7621 156.378 70.7621 155.998V149.486ZM74.6783 157.6V151.055H75.6499V152.043H75.718C75.8374 151.719 76.0533 151.457 76.3658 151.255C76.6783 151.053 77.0305 150.952 77.4226 150.952C77.4964 150.952 77.5888 150.954 77.6996 150.957C77.8104 150.959 77.8942 150.964 77.951 150.969V151.992C77.9169 151.984 77.8388 151.971 77.7166 151.954C77.5973 151.934 77.4709 151.924 77.3374 151.924C77.0192 151.924 76.7351 151.991 76.4851 152.124C76.2379 152.255 76.0419 152.437 75.897 152.67C75.755 152.9 75.6839 153.163 75.6839 153.458V157.6H74.6783ZM83.2681 154.924V151.055H84.2738V157.6H83.2681V156.492H83.1999C83.0465 156.824 82.8079 157.107 82.484 157.34C82.1602 157.57 81.7511 157.685 81.2567 157.685C80.8477 157.685 80.484 157.596 80.1658 157.417C79.8477 157.235 79.5977 156.962 79.4158 156.599C79.234 156.232 79.1431 155.77 79.1431 155.214V151.055H80.1488V155.145C80.1488 155.623 80.2823 156.003 80.5494 156.288C80.8192 156.572 81.163 156.714 81.5806 156.714C81.8306 156.714 82.0849 156.65 82.3434 156.522C82.6048 156.394 82.8235 156.198 82.9996 155.934C83.1786 155.67 83.2681 155.333 83.2681 154.924ZM86.1158 157.6V151.055H87.0874V152.077H87.1726C87.3089 151.728 87.5291 151.457 87.8331 151.263C88.1371 151.067 88.5021 150.969 88.9283 150.969C89.3601 150.969 89.7195 151.067 90.0064 151.263C90.2962 151.457 90.522 151.728 90.6839 152.077H90.7521C90.9197 151.739 91.1712 151.471 91.5064 151.272C91.8416 151.07 92.2436 150.969 92.7124 150.969C93.2976 150.969 93.7763 151.153 94.1484 151.519C94.5206 151.883 94.7067 152.449 94.7067 153.219V157.6H93.701V153.219C93.701 152.736 93.5689 152.391 93.3047 152.184C93.0405 151.976 92.7294 151.873 92.3714 151.873C91.9112 151.873 91.5547 152.012 91.3018 152.29C91.049 152.566 90.9226 152.915 90.9226 153.339V157.6H89.8999V153.117C89.8999 152.745 89.7791 152.445 89.5376 152.218C89.2962 151.988 88.9851 151.873 88.6044 151.873C88.343 151.873 88.0987 151.942 87.8714 152.082C87.647 152.221 87.4652 152.414 87.326 152.661C87.1896 152.905 87.1214 153.188 87.1214 153.509V157.6H86.1158ZM100.295 153.39V154.327H96.4773V153.39H100.295ZM106.701 152.52L105.798 152.776C105.741 152.626 105.657 152.479 105.547 152.337C105.439 152.192 105.291 152.073 105.103 151.979C104.916 151.886 104.676 151.839 104.383 151.839C103.983 151.839 103.649 151.931 103.382 152.116C103.118 152.297 102.985 152.529 102.985 152.81C102.985 153.06 103.076 153.258 103.258 153.403C103.44 153.547 103.724 153.668 104.11 153.765L105.082 154.003C105.667 154.145 106.103 154.363 106.39 154.655C106.677 154.945 106.821 155.319 106.821 155.776C106.821 156.151 106.713 156.486 106.497 156.782C106.284 157.077 105.985 157.31 105.602 157.481C105.218 157.651 104.772 157.736 104.264 157.736C103.596 157.736 103.044 157.591 102.606 157.302C102.169 157.012 101.892 156.589 101.775 156.032L102.73 155.793C102.821 156.145 102.993 156.41 103.245 156.586C103.501 156.762 103.835 156.85 104.247 156.85C104.716 156.85 105.088 156.751 105.363 156.552C105.642 156.35 105.781 156.109 105.781 155.827C105.781 155.6 105.701 155.41 105.542 155.256C105.383 155.1 105.139 154.984 104.809 154.907L103.718 154.651C103.119 154.509 102.679 154.289 102.397 153.991C102.119 153.689 101.98 153.313 101.98 152.861C101.98 152.492 102.083 152.165 102.291 151.881C102.501 151.597 102.787 151.374 103.147 151.212C103.511 151.05 103.923 150.969 104.383 150.969C105.031 150.969 105.539 151.111 105.909 151.395C106.281 151.68 106.545 152.055 106.701 152.52ZM111.181 151.055V151.907H107.789V151.055H111.181ZM108.778 149.486H109.783V155.725C109.783 156.009 109.825 156.222 109.907 156.364C109.992 156.503 110.1 156.597 110.231 156.645C110.364 156.691 110.505 156.714 110.653 156.714C110.763 156.714 110.854 156.708 110.925 156.697C110.996 156.682 111.053 156.671 111.096 156.663L111.3 157.566C111.232 157.591 111.137 157.617 111.015 157.643C110.893 157.671 110.738 157.685 110.55 157.685C110.266 157.685 109.988 157.624 109.715 157.502C109.445 157.38 109.221 157.194 109.042 156.944C108.866 156.694 108.778 156.378 108.778 155.998V149.486ZM113.342 160.055C113.171 160.055 113.019 160.04 112.886 160.012C112.752 159.986 112.66 159.961 112.609 159.935L112.864 159.049C113.109 159.111 113.325 159.134 113.512 159.117C113.7 159.1 113.866 159.016 114.011 158.866C114.158 158.718 114.293 158.478 114.415 158.145L114.603 157.634L112.183 151.055H113.273L115.08 156.27H115.148L116.955 151.055H118.046L115.268 158.555C115.143 158.893 114.988 159.172 114.803 159.394C114.619 159.618 114.404 159.785 114.16 159.893C113.918 160.001 113.646 160.055 113.342 160.055ZM120.379 148.873V157.6H119.374V148.873H120.379ZM126.346 154.924V151.055H127.352V157.6H126.346V156.492H126.278C126.125 156.824 125.886 157.107 125.562 157.34C125.238 157.57 124.829 157.685 124.335 157.685C123.926 157.685 123.562 157.596 123.244 157.417C122.926 157.235 122.676 156.962 122.494 156.599C122.312 156.232 122.221 155.77 122.221 155.214V151.055H123.227V155.145C123.227 155.623 123.36 156.003 123.627 156.288C123.897 156.572 124.241 156.714 124.659 156.714C124.909 156.714 125.163 156.65 125.422 156.522C125.683 156.394 125.902 156.198 126.078 155.934C126.257 155.67 126.346 155.333 126.346 154.924ZM133.83 152.52L132.927 152.776C132.87 152.626 132.786 152.479 132.675 152.337C132.567 152.192 132.42 152.073 132.232 151.979C132.045 151.886 131.805 151.839 131.512 151.839C131.112 151.839 130.778 151.931 130.511 152.116C130.246 152.297 130.114 152.529 130.114 152.81C130.114 153.06 130.205 153.258 130.387 153.403C130.569 153.547 130.853 153.668 131.239 153.765L132.211 154.003C132.796 154.145 133.232 154.363 133.519 154.655C133.806 154.945 133.95 155.319 133.95 155.776C133.95 156.151 133.842 156.486 133.626 156.782C133.413 157.077 133.114 157.31 132.731 157.481C132.347 157.651 131.901 157.736 131.393 157.736C130.725 157.736 130.173 157.591 129.735 157.302C129.298 157.012 129.021 156.589 128.904 156.032L129.859 155.793C129.95 156.145 130.121 156.41 130.374 156.586C130.63 156.762 130.964 156.85 131.376 156.85C131.844 156.85 132.217 156.751 132.492 156.552C132.771 156.35 132.91 156.109 132.91 155.827C132.91 155.6 132.83 155.41 132.671 155.256C132.512 155.1 132.268 154.984 131.938 154.907L130.847 154.651C130.248 154.509 129.808 154.289 129.526 153.991C129.248 153.689 129.109 153.313 129.109 152.861C129.109 152.492 129.212 152.165 129.42 151.881C129.63 151.597 129.915 151.374 130.276 151.212C130.64 151.05 131.052 150.969 131.512 150.969C132.16 150.969 132.668 151.111 133.038 151.395C133.41 151.68 133.674 152.055 133.83 152.52ZM139.213 153.39V154.327H135.395V153.39H139.213ZM145.619 152.52L144.716 152.776C144.659 152.626 144.575 152.479 144.464 152.337C144.357 152.192 144.209 152.073 144.021 151.979C143.834 151.886 143.594 151.839 143.301 151.839C142.901 151.839 142.567 151.931 142.3 152.116C142.036 152.297 141.903 152.529 141.903 152.81C141.903 153.06 141.994 153.258 142.176 153.403C142.358 153.547 142.642 153.668 143.028 153.765L144 154.003C144.585 154.145 145.021 154.363 145.308 154.655C145.595 154.945 145.739 155.319 145.739 155.776C145.739 156.151 145.631 156.486 145.415 156.782C145.202 157.077 144.903 157.31 144.52 157.481C144.136 157.651 143.69 157.736 143.182 157.736C142.514 157.736 141.962 157.591 141.524 157.302C141.087 157.012 140.81 156.589 140.693 156.032L141.648 155.793C141.739 156.145 141.911 156.41 142.163 156.586C142.419 156.762 142.753 156.85 143.165 156.85C143.634 156.85 144.006 156.751 144.281 156.552C144.56 156.35 144.699 156.109 144.699 155.827C144.699 155.6 144.619 155.41 144.46 155.256C144.301 155.1 144.057 154.984 143.727 154.907L142.636 154.651C142.037 154.509 141.597 154.289 141.315 153.991C141.037 153.689 140.898 153.313 140.898 152.861C140.898 152.492 141.001 152.165 141.209 151.881C141.419 151.597 141.705 151.374 142.065 151.212C142.429 151.05 142.841 150.969 143.301 150.969C143.949 150.969 144.457 151.111 144.827 151.395C145.199 151.68 145.463 152.055 145.619 152.52ZM151.377 154.924V151.055H152.383V157.6H151.377V156.492H151.309C151.156 156.824 150.917 157.107 150.593 157.34C150.27 157.57 149.86 157.685 149.366 157.685C148.957 157.685 148.593 157.596 148.275 157.417C147.957 157.235 147.707 156.962 147.525 156.599C147.343 156.232 147.252 155.77 147.252 155.214V151.055H148.258V155.145C148.258 155.623 148.392 156.003 148.659 156.288C148.929 156.572 149.272 156.714 149.69 156.714C149.94 156.714 150.194 156.65 150.453 156.522C150.714 156.394 150.933 156.198 151.109 155.934C151.288 155.67 151.377 155.333 151.377 154.924ZM154.225 160.055V151.055H155.197V152.094H155.316C155.39 151.981 155.492 151.836 155.623 151.66C155.756 151.481 155.947 151.322 156.194 151.182C156.444 151.04 156.782 150.969 157.208 150.969C157.759 150.969 158.245 151.107 158.665 151.383C159.086 151.658 159.414 152.049 159.65 152.555C159.886 153.06 160.004 153.657 160.004 154.344C160.004 155.038 159.886 155.638 159.65 156.147C159.414 156.653 159.087 157.045 158.67 157.323C158.252 157.599 157.771 157.736 157.225 157.736C156.805 157.736 156.468 157.667 156.215 157.528C155.962 157.386 155.768 157.225 155.631 157.046C155.495 156.864 155.39 156.714 155.316 156.594H155.231V160.055H154.225ZM155.214 154.327C155.214 154.822 155.286 155.258 155.431 155.636C155.576 156.011 155.788 156.305 156.066 156.518C156.344 156.728 156.685 156.833 157.089 156.833C157.509 156.833 157.86 156.722 158.141 156.501C158.425 156.276 158.638 155.975 158.781 155.597C158.925 155.216 158.998 154.793 158.998 154.327C158.998 153.867 158.927 153.452 158.785 153.083C158.646 152.711 158.434 152.417 158.15 152.201C157.869 151.982 157.515 151.873 157.089 151.873C156.68 151.873 156.336 151.976 156.058 152.184C155.779 152.388 155.569 152.675 155.427 153.045C155.285 153.411 155.214 153.839 155.214 154.327ZM161.538 160.055V151.055H162.509V152.094H162.629C162.702 151.981 162.805 151.836 162.935 151.66C163.069 151.481 163.259 151.322 163.506 151.182C163.756 151.04 164.094 150.969 164.521 150.969C165.072 150.969 165.558 151.107 165.978 151.383C166.398 151.658 166.727 152.049 166.962 152.555C167.198 153.06 167.316 153.657 167.316 154.344C167.316 155.038 167.198 155.638 166.962 156.147C166.727 156.653 166.4 157.045 165.982 157.323C165.565 157.599 165.083 157.736 164.538 157.736C164.117 157.736 163.781 157.667 163.528 157.528C163.275 157.386 163.08 157.225 162.944 157.046C162.808 156.864 162.702 156.714 162.629 156.594H162.543V160.055H161.538ZM162.526 154.327C162.526 154.822 162.599 155.258 162.744 155.636C162.888 156.011 163.1 156.305 163.379 156.518C163.657 156.728 163.998 156.833 164.401 156.833C164.822 156.833 165.173 156.722 165.454 156.501C165.738 156.276 165.951 155.975 166.093 155.597C166.238 155.216 166.31 154.793 166.31 154.327C166.31 153.867 166.239 153.452 166.097 153.083C165.958 152.711 165.746 152.417 165.462 152.201C165.181 151.982 164.827 151.873 164.401 151.873C163.992 151.873 163.648 151.976 163.37 152.184C163.092 152.388 162.881 152.675 162.739 153.045C162.597 153.411 162.526 153.839 162.526 154.327ZM171.509 157.736C170.918 157.736 170.4 157.596 169.954 157.314C169.511 157.033 169.164 156.64 168.914 156.134C168.667 155.628 168.543 155.038 168.543 154.361C168.543 153.68 168.667 153.084 168.914 152.576C169.164 152.067 169.511 151.672 169.954 151.391C170.4 151.11 170.918 150.969 171.509 150.969C172.1 150.969 172.617 151.11 173.06 151.391C173.506 151.672 173.853 152.067 174.1 152.576C174.35 153.084 174.475 153.68 174.475 154.361C174.475 155.038 174.35 155.628 174.1 156.134C173.853 156.64 173.506 157.033 173.06 157.314C172.617 157.596 172.1 157.736 171.509 157.736ZM171.509 156.833C171.958 156.833 172.327 156.718 172.617 156.488C172.907 156.258 173.121 155.955 173.261 155.58C173.4 155.205 173.469 154.799 173.469 154.361C173.469 153.924 173.4 153.516 173.261 153.138C173.121 152.761 172.907 152.455 172.617 152.222C172.327 151.989 171.958 151.873 171.509 151.873C171.06 151.873 170.691 151.989 170.401 152.222C170.112 152.455 169.897 152.761 169.758 153.138C169.619 153.516 169.549 153.924 169.549 154.361C169.549 154.799 169.619 155.205 169.758 155.58C169.897 155.955 170.112 156.258 170.401 156.488C170.691 156.718 171.06 156.833 171.509 156.833ZM176.01 157.6V151.055H176.982V152.043H177.05C177.169 151.719 177.385 151.457 177.698 151.255C178.01 151.053 178.363 150.952 178.755 150.952C178.828 150.952 178.921 150.954 179.032 150.957C179.142 150.959 179.226 150.964 179.283 150.969V151.992C179.249 151.984 179.171 151.971 179.049 151.954C178.929 151.934 178.803 151.924 178.669 151.924C178.351 151.924 178.067 151.991 177.817 152.124C177.57 152.255 177.374 152.437 177.229 152.67C177.087 152.9 177.016 153.163 177.016 153.458V157.6H176.01ZM183.732 151.055V151.907H180.34V151.055H183.732ZM181.328 149.486H182.334V155.725C182.334 156.009 182.375 156.222 182.458 156.364C182.543 156.503 182.651 156.597 182.782 156.645C182.915 156.691 183.056 156.714 183.203 156.714C183.314 156.714 183.405 156.708 183.476 156.697C183.547 156.682 183.604 156.671 183.647 156.663L183.851 157.566C183.783 157.591 183.688 157.617 183.566 157.643C183.444 157.671 183.289 157.685 183.101 157.685C182.817 157.685 182.539 157.624 182.266 157.502C181.996 157.38 181.772 157.194 181.593 156.944C181.417 156.694 181.328 156.378 181.328 155.998V149.486Z" fill="white"/>
<path d="M345.861 157.6V148.873H349.202C349.832 148.873 350.357 148.972 350.774 149.171C351.195 149.367 351.509 149.636 351.716 149.976C351.926 150.317 352.031 150.704 352.031 151.136C352.031 151.491 351.963 151.795 351.827 152.047C351.69 152.297 351.507 152.501 351.277 152.657C351.047 152.813 350.79 152.925 350.506 152.993V153.079C350.815 153.096 351.112 153.191 351.396 153.364C351.683 153.535 351.918 153.776 352.099 154.089C352.281 154.401 352.372 154.779 352.372 155.222C352.372 155.674 352.263 156.08 352.044 156.441C351.825 156.799 351.496 157.082 351.055 157.289C350.615 157.496 350.061 157.6 349.393 157.6H345.861ZM347.442 156.279H349.142C349.716 156.279 350.129 156.17 350.382 155.951C350.638 155.729 350.766 155.445 350.766 155.099C350.766 154.84 350.702 154.607 350.574 154.4C350.446 154.189 350.264 154.025 350.028 153.905C349.793 153.783 349.511 153.722 349.185 153.722H347.442V156.279ZM347.442 152.584H349.006C349.278 152.584 349.524 152.535 349.743 152.435C349.962 152.333 350.134 152.189 350.259 152.005C350.386 151.817 350.45 151.596 350.45 151.34C350.45 151.002 350.331 150.724 350.092 150.505C349.857 150.286 349.506 150.177 349.04 150.177H347.442V152.584ZM353.679 157.6V151.055H355.175V152.145H355.243C355.363 151.768 355.567 151.476 355.857 151.272C356.15 151.064 356.483 150.961 356.858 150.961C356.944 150.961 357.039 150.965 357.144 150.974C357.252 150.979 357.341 150.989 357.412 151.003V152.422C357.347 152.4 357.243 152.38 357.101 152.363C356.962 152.343 356.827 152.333 356.696 152.333C356.415 152.333 356.162 152.394 355.938 152.516C355.716 152.636 355.542 152.802 355.414 153.015C355.286 153.228 355.222 153.474 355.222 153.752V157.6H353.679ZM360.203 157.732C359.789 157.732 359.415 157.658 359.083 157.511C358.753 157.36 358.492 157.138 358.299 156.846C358.108 156.553 358.013 156.192 358.013 155.763C358.013 155.394 358.081 155.089 358.218 154.847C358.354 154.606 358.54 154.413 358.776 154.268C359.012 154.123 359.277 154.013 359.573 153.939C359.871 153.863 360.179 153.807 360.498 153.773C360.881 153.734 361.192 153.698 361.431 153.667C361.669 153.633 361.843 153.582 361.951 153.513C362.061 153.442 362.117 153.333 362.117 153.185V153.16C362.117 152.839 362.022 152.59 361.831 152.414C361.641 152.238 361.367 152.15 361.009 152.15C360.631 152.15 360.331 152.232 360.11 152.397C359.891 152.562 359.743 152.756 359.667 152.981L358.226 152.776C358.34 152.378 358.527 152.046 358.789 151.779C359.05 151.509 359.37 151.307 359.748 151.174C360.125 151.038 360.543 150.969 361 150.969C361.316 150.969 361.63 151.006 361.942 151.08C362.255 151.154 362.54 151.276 362.799 151.447C363.057 151.614 363.265 151.843 363.421 152.133C363.58 152.422 363.659 152.785 363.659 153.219V157.6H362.176V156.701H362.125C362.032 156.883 361.9 157.053 361.729 157.212C361.561 157.368 361.35 157.495 361.094 157.591C360.841 157.685 360.544 157.732 360.203 157.732ZM360.604 156.599C360.914 156.599 361.182 156.538 361.409 156.415C361.637 156.29 361.811 156.126 361.934 155.921C362.059 155.716 362.121 155.493 362.121 155.252V154.481C362.073 154.52 361.99 154.557 361.874 154.591C361.76 154.626 361.632 154.655 361.49 154.681C361.348 154.707 361.208 154.729 361.069 154.749C360.929 154.769 360.809 154.786 360.706 154.8C360.476 154.832 360.27 154.883 360.088 154.954C359.907 155.025 359.763 155.124 359.658 155.252C359.553 155.377 359.5 155.539 359.5 155.738C359.5 156.022 359.604 156.236 359.811 156.381C360.019 156.526 360.283 156.599 360.604 156.599ZM366.753 153.765V157.6H365.211V151.055H366.685V152.167H366.762C366.912 151.8 367.152 151.509 367.482 151.293C367.814 151.077 368.225 150.969 368.713 150.969C369.165 150.969 369.559 151.066 369.894 151.259C370.232 151.452 370.493 151.732 370.678 152.099C370.865 152.465 370.958 152.91 370.955 153.432V157.6H369.412V153.671C369.412 153.234 369.299 152.891 369.071 152.644C368.847 152.397 368.536 152.273 368.138 152.273C367.868 152.273 367.628 152.333 367.418 152.452C367.211 152.569 367.047 152.738 366.928 152.959C366.811 153.181 366.753 153.449 366.753 153.765ZM375.378 157.728C374.725 157.728 374.164 157.584 373.695 157.297C373.229 157.011 372.87 156.614 372.617 156.109C372.367 155.6 372.242 155.015 372.242 154.353C372.242 153.688 372.37 153.101 372.625 152.593C372.881 152.082 373.242 151.684 373.708 151.4C374.176 151.113 374.73 150.969 375.37 150.969C375.901 150.969 376.371 151.067 376.78 151.263C377.192 151.457 377.52 151.731 377.765 152.086C378.009 152.438 378.148 152.85 378.182 153.322H376.708C376.648 153.006 376.506 152.743 376.282 152.533C376.06 152.32 375.763 152.214 375.391 152.214C375.076 152.214 374.799 152.299 374.56 152.469C374.321 152.637 374.135 152.878 374.002 153.194C373.871 153.509 373.806 153.887 373.806 154.327C373.806 154.773 373.871 155.157 374.002 155.478C374.132 155.796 374.316 156.042 374.551 156.215C374.79 156.386 375.07 156.471 375.391 156.471C375.618 156.471 375.821 156.428 376 156.343C376.182 156.255 376.334 156.128 376.456 155.964C376.578 155.799 376.662 155.599 376.708 155.363H378.182C378.145 155.826 378.009 156.236 377.773 156.594C377.537 156.949 377.216 157.228 376.81 157.43C376.404 157.628 375.926 157.728 375.378 157.728ZM380.991 153.765V157.6H379.449V148.873H380.957V152.167H381.034C381.188 151.797 381.425 151.506 381.746 151.293C382.07 151.077 382.482 150.969 382.982 150.969C383.436 150.969 383.832 151.064 384.17 151.255C384.509 151.445 384.77 151.724 384.955 152.09C385.142 152.457 385.236 152.904 385.236 153.432V157.6H383.693V153.671C383.693 153.231 383.58 152.888 383.352 152.644C383.128 152.397 382.812 152.273 382.406 152.273C382.134 152.273 381.889 152.333 381.673 152.452C381.46 152.569 381.293 152.738 381.17 152.959C381.051 153.181 380.991 153.449 380.991 153.765ZM387.759 157.694C387.5 157.694 387.278 157.603 387.094 157.421C386.909 157.239 386.818 157.018 386.821 156.756C386.818 156.501 386.909 156.282 387.094 156.1C387.278 155.918 387.5 155.827 387.759 155.827C388.009 155.827 388.226 155.918 388.411 156.1C388.598 156.282 388.693 156.501 388.696 156.756C388.693 156.93 388.648 157.087 388.56 157.229C388.474 157.371 388.361 157.485 388.219 157.57C388.08 157.653 387.926 157.694 387.759 157.694ZM387.759 153.023C387.5 153.023 387.278 152.932 387.094 152.751C386.909 152.566 386.818 152.344 386.821 152.086C386.818 151.83 386.909 151.611 387.094 151.43C387.278 151.245 387.5 151.153 387.759 151.153C388.009 151.153 388.226 151.245 388.411 151.43C388.598 151.611 388.693 151.83 388.696 152.086C388.693 152.256 388.648 152.413 388.56 152.555C388.474 152.697 388.361 152.81 388.219 152.895C388.08 152.981 387.926 153.023 387.759 153.023ZM396.451 157.736C395.86 157.736 395.341 157.596 394.895 157.314C394.452 157.033 394.105 156.64 393.855 156.134C393.608 155.628 393.485 155.038 393.485 154.361C393.485 153.68 393.608 153.084 393.855 152.576C394.105 152.067 394.452 151.672 394.895 151.391C395.341 151.11 395.86 150.969 396.451 150.969C397.042 150.969 397.559 151.11 398.002 151.391C398.448 151.672 398.794 152.067 399.042 152.576C399.292 153.084 399.417 153.68 399.417 154.361C399.417 155.038 399.292 155.628 399.042 156.134C398.794 156.64 398.448 157.033 398.002 157.314C397.559 157.596 397.042 157.736 396.451 157.736ZM396.451 156.833C396.9 156.833 397.269 156.718 397.559 156.488C397.848 156.258 398.063 155.955 398.202 155.58C398.341 155.205 398.411 154.799 398.411 154.361C398.411 153.924 398.341 153.516 398.202 153.138C398.063 152.761 397.848 152.455 397.559 152.222C397.269 151.989 396.9 151.873 396.451 151.873C396.002 151.873 395.632 151.989 395.343 152.222C395.053 152.455 394.838 152.761 394.699 153.138C394.56 153.516 394.49 153.924 394.49 154.361C394.49 154.799 394.56 155.205 394.699 155.58C394.838 155.955 395.053 156.258 395.343 156.488C395.632 156.718 396.002 156.833 396.451 156.833ZM400.952 160.055V151.055H401.923V152.094H402.043C402.116 151.981 402.219 151.836 402.349 151.66C402.483 151.481 402.673 151.322 402.92 151.182C403.17 151.04 403.509 150.969 403.935 150.969C404.486 150.969 404.972 151.107 405.392 151.383C405.813 151.658 406.141 152.049 406.376 152.555C406.612 153.06 406.73 153.657 406.73 154.344C406.73 155.038 406.612 155.638 406.376 156.147C406.141 156.653 405.814 157.045 405.396 157.323C404.979 157.599 404.497 157.736 403.952 157.736C403.531 157.736 403.195 157.667 402.942 157.528C402.689 157.386 402.494 157.225 402.358 157.046C402.222 156.864 402.116 156.714 402.043 156.594H401.957V160.055H400.952ZM401.94 154.327C401.94 154.822 402.013 155.258 402.158 155.636C402.303 156.011 402.514 156.305 402.793 156.518C403.071 156.728 403.412 156.833 403.815 156.833C404.236 156.833 404.587 156.722 404.868 156.501C405.152 156.276 405.365 155.975 405.507 155.597C405.652 155.216 405.724 154.793 405.724 154.327C405.724 153.867 405.653 153.452 405.511 153.083C405.372 152.711 405.161 152.417 404.876 152.201C404.595 151.982 404.241 151.873 403.815 151.873C403.406 151.873 403.063 151.976 402.784 152.184C402.506 152.388 402.295 152.675 402.153 153.045C402.011 153.411 401.94 153.839 401.94 154.327ZM411.111 151.055V151.907H407.719V151.055H411.111ZM408.707 149.486H409.713V155.725C409.713 156.009 409.754 156.222 409.837 156.364C409.922 156.503 410.03 156.597 410.161 156.645C410.294 156.691 410.435 156.714 410.582 156.714C410.693 156.714 410.784 156.708 410.855 156.697C410.926 156.682 410.983 156.671 411.026 156.663L411.23 157.566C411.162 157.591 411.067 157.617 410.945 157.643C410.822 157.671 410.668 157.685 410.48 157.685C410.196 157.685 409.918 157.624 409.645 157.502C409.375 157.38 409.151 157.194 408.972 156.944C408.795 156.694 408.707 156.378 408.707 155.998V149.486ZM412.624 157.6V151.055H413.629V157.6H412.624ZM413.135 149.964C412.939 149.964 412.77 149.897 412.628 149.763C412.489 149.63 412.419 149.469 412.419 149.282C412.419 149.094 412.489 148.934 412.628 148.8C412.77 148.667 412.939 148.6 413.135 148.6C413.331 148.6 413.499 148.667 413.638 148.8C413.78 148.934 413.851 149.094 413.851 149.282C413.851 149.469 413.78 149.63 413.638 149.763C413.499 149.897 413.331 149.964 413.135 149.964ZM415.471 157.6V151.055H416.443V152.077H416.528C416.664 151.728 416.885 151.457 417.189 151.263C417.493 151.067 417.858 150.969 418.284 150.969C418.716 150.969 419.075 151.067 419.362 151.263C419.652 151.457 419.877 151.728 420.039 152.077H420.108C420.275 151.739 420.527 151.471 420.862 151.272C421.197 151.07 421.599 150.969 422.068 150.969C422.653 150.969 423.132 151.153 423.504 151.519C423.876 151.883 424.062 152.449 424.062 153.219V157.6H423.056V153.219C423.056 152.736 422.924 152.391 422.66 152.184C422.396 151.976 422.085 151.873 421.727 151.873C421.267 151.873 420.91 152.012 420.657 152.29C420.404 152.566 420.278 152.915 420.278 153.339V157.6H419.255V153.117C419.255 152.745 419.135 152.445 418.893 152.218C418.652 151.988 418.341 151.873 417.96 151.873C417.699 151.873 417.454 151.942 417.227 152.082C417.002 152.221 416.821 152.414 416.681 152.661C416.545 152.905 416.477 153.188 416.477 153.509V157.6H415.471ZM425.901 157.6V151.055H426.907V157.6H425.901ZM426.412 149.964C426.216 149.964 426.047 149.897 425.905 149.763C425.766 149.63 425.696 149.469 425.696 149.282C425.696 149.094 425.766 148.934 425.905 148.8C426.047 148.667 426.216 148.6 426.412 148.6C426.608 148.6 426.776 148.667 426.915 148.8C427.057 148.934 427.128 149.094 427.128 149.282C427.128 149.469 427.057 149.63 426.915 149.763C426.776 149.897 426.608 149.964 426.412 149.964ZM433.385 152.52L432.482 152.776C432.425 152.626 432.341 152.479 432.23 152.337C432.122 152.192 431.974 152.073 431.787 151.979C431.599 151.886 431.359 151.839 431.067 151.839C430.666 151.839 430.332 151.931 430.065 152.116C429.801 152.297 429.669 152.529 429.669 152.81C429.669 153.06 429.76 153.258 429.942 153.403C430.124 153.547 430.408 153.668 430.794 153.765L431.766 154.003C432.351 154.145 432.787 154.363 433.074 154.655C433.361 154.945 433.504 155.319 433.504 155.776C433.504 156.151 433.396 156.486 433.18 156.782C432.967 157.077 432.669 157.31 432.286 157.481C431.902 157.651 431.456 157.736 430.947 157.736C430.28 157.736 429.727 157.591 429.29 157.302C428.852 157.012 428.575 156.589 428.459 156.032L429.413 155.793C429.504 156.145 429.676 156.41 429.929 156.586C430.185 156.762 430.518 156.85 430.93 156.85C431.399 156.85 431.771 156.751 432.047 156.552C432.325 156.35 432.464 156.109 432.464 155.827C432.464 155.6 432.385 155.41 432.226 155.256C432.067 155.1 431.822 154.984 431.493 154.907L430.402 154.651C429.803 154.509 429.362 154.289 429.081 153.991C428.803 153.689 428.663 153.313 428.663 152.861C428.663 152.492 428.767 152.165 428.974 151.881C429.185 151.597 429.47 151.374 429.831 151.212C430.195 151.05 430.607 150.969 431.067 150.969C431.714 150.969 432.223 151.111 432.592 151.395C432.964 151.68 433.229 152.055 433.385 152.52ZM435.018 157.6V151.055H435.99V152.077H436.075C436.211 151.728 436.431 151.457 436.735 151.263C437.039 151.067 437.404 150.969 437.831 150.969C438.262 150.969 438.622 151.067 438.909 151.263C439.199 151.457 439.424 151.728 439.586 152.077H439.654C439.822 151.739 440.074 151.471 440.409 151.272C440.744 151.07 441.146 150.969 441.615 150.969C442.2 150.969 442.679 151.153 443.051 151.519C443.423 151.883 443.609 152.449 443.609 153.219V157.6H442.603V153.219C442.603 152.736 442.471 152.391 442.207 152.184C441.943 151.976 441.632 151.873 441.274 151.873C440.814 151.873 440.457 152.012 440.204 152.29C439.951 152.566 439.825 152.915 439.825 153.339V157.6H438.802V153.117C438.802 152.745 438.681 152.445 438.44 152.218C438.199 151.988 437.887 151.873 437.507 151.873C437.245 151.873 437.001 151.942 436.774 152.082C436.549 152.221 436.368 152.414 436.228 152.661C436.092 152.905 436.024 153.188 436.024 153.509V157.6H435.018ZM449.198 153.39V154.327H445.38V153.39H449.198ZM453.882 151.055V151.907H450.354V151.055H453.882ZM451.411 157.6V150.151C451.411 149.776 451.499 149.464 451.675 149.214C451.851 148.964 452.08 148.776 452.361 148.651C452.642 148.526 452.939 148.464 453.251 148.464C453.499 148.464 453.7 148.484 453.857 148.523C454.013 148.563 454.129 148.6 454.206 148.634L453.916 149.503C453.865 149.486 453.794 149.465 453.703 149.439C453.615 149.414 453.499 149.401 453.354 149.401C453.021 149.401 452.781 149.485 452.634 149.653C452.489 149.82 452.416 150.066 452.416 150.39V157.6H451.411ZM455.292 157.6V151.055H456.297V157.6H455.292ZM455.803 149.964C455.607 149.964 455.438 149.897 455.296 149.763C455.157 149.63 455.087 149.469 455.087 149.282C455.087 149.094 455.157 148.934 455.296 148.8C455.438 148.667 455.607 148.6 455.803 148.6C455.999 148.6 456.167 148.667 456.306 148.8C456.448 148.934 456.519 149.094 456.519 149.282C456.519 149.469 456.448 149.63 456.306 149.763C456.167 149.897 455.999 149.964 455.803 149.964ZM458.889 151.055L460.457 153.731L462.026 151.055H463.185L461.071 154.327L463.185 157.6H462.026L460.457 155.06L458.889 157.6H457.73L459.81 154.327L457.73 151.055H458.889Z" fill="white"/>
</svg>
